<?xml version="1.0" encoding="UTF-8" standalone="no"?>
<!DOCTYPE svg PUBLIC "-//W3C//DTD SVG 1.1//EN"
 "http://www.w3.org/Graphics/SVG/1.1/DTD/svg11.dtd">
<!-- Generated by graphviz version 2.40.1 (20161225.0304)
 -->
<!-- Title: G Pages: 1 -->
<svg width="640pt" height="346pt"
 viewBox="0.00 0.00 639.85 346.00" xmlns="http://www.w3.org/2000/svg" xmlns:xlink="http://www.w3.org/1999/xlink">
<g id="graph0" class="graph" transform="scale(1 1) rotate(0) translate(4 342)">
<title>G</title>
<polygon fill="#ffffff" stroke="transparent" points="-4,4 -4,-342 635.848,-342 635.848,4 -4,4"/>
<!-- A0 -->
<g id="node1" class="node">
<title>A0</title>
<polygon fill="#fff8dc" stroke="#000000" points="108.5444,-272 .1516,-272 .1516,-236 114.5444,-236 114.5444,-266 108.5444,-272"/>
<polyline fill="none" stroke="#000000" points="108.5444,-272 108.5444,-266 "/>
<polyline fill="none" stroke="#000000" points="114.5444,-266 108.5444,-266 "/>
<text text-anchor="middle" x="57.348" y="-257" font-family="Helvetica,sans-Serif" font-size="10.00" fill="#000000">You can stick notes</text>
<text text-anchor="middle" x="57.348" y="-245" font-family="Helvetica,sans-Serif" font-size="10.00" fill="#000000">on diagrams too!</text>
</g>
<!-- A1 -->
<g id="node2" class="node">
<title>A1</title>
<polygon fill="none" stroke="#000000" points="132.348,-300 132.348,-332 238.348,-332 238.348,-300 132.348,-300"/>
<text text-anchor="start" x="173.4" y="-313" font-family="Helvetica,sans-Serif" font-size="10.00" fill="#000000">Node</text>
<polygon fill="none" stroke="#000000" points="132.348,-256 132.348,-300 238.348,-300 238.348,-256 132.348,-256"/>
<text text-anchor="start" x="143.6665" y="-281" font-family="Helvetica,sans-Serif" font-size="10.00" fill="#000000">&#45;father_node:Node</text>
<text text-anchor="start" x="150.34" y="-269" font-family="Helvetica,sans-Serif" font-size="10.00" fill="#000000">&#45;child_node:List</text>
<polygon fill="none" stroke="#000000" points="132.348,-176 132.348,-256 238.348,-256 238.348,-176 132.348,-176"/>
<text text-anchor="start" x="147.1455" y="-237" font-family="Helvetica,sans-Serif" font-size="10.00" fill="#000000">+add_child():void</text>
<text text-anchor="start" x="141.867" y="-225" font-family="Helvetica,sans-Serif" font-size="10.00" fill="#000000">+delete_child():void</text>
<text text-anchor="start" x="146.311" y="-213" font-family="Helvetica,sans-Serif" font-size="10.00" fill="#000000">+set_father():void</text>
<text text-anchor="start" x="146.0315" y="-201" font-family="Helvetica,sans-Serif" font-size="10.00" fill="#000000">+get_father():void</text>
<text text-anchor="start" x="151.455" y="-189" font-family="Helvetica,sans-Serif" font-size="10.00" fill="#000000">get_child():void</text>
</g>
<!-- A2 -->
<g id="node3" class="node">
<title>A2</title>
<polygon fill="none" stroke="#000000" points="135.348,-88 135.348,-120 235.348,-120 235.348,-88 135.348,-88"/>
<text text-anchor="start" x="165.347" y="-101" font-family="Helvetica,sans-Serif" font-size="10.00" fill="#000000">FileNode</text>
<polygon fill="none" stroke="#000000" points="135.348,-44 135.348,-88 235.348,-88 235.348,-44 135.348,-44"/>
<text text-anchor="start" x="159.509" y="-69" font-family="Helvetica,sans-Serif" font-size="10.00" fill="#000000">&#45;path:String</text>
<text text-anchor="start" x="167.567" y="-57" font-family="Helvetica,sans-Serif" font-size="10.00" fill="#000000">&#45;tag:List</text>
<polygon fill="none" stroke="#000000" points="135.348,0 135.348,-44 235.348,-44 235.348,0 135.348,0"/>
<text text-anchor="start" x="145.197" y="-25" font-family="Helvetica,sans-Serif" font-size="10.00" fill="#000000">+get_path():String</text>
<text text-anchor="start" x="153.255" y="-13" font-family="Helvetica,sans-Serif" font-size="10.00" fill="#000000">+get_tag():List</text>
</g>
<!-- A1&#45;&gt;A2 -->
<g id="edge1" class="edge">
<title>A1&#45;&gt;A2</title>
<path fill="none" stroke="#000000" d="M185.348,-165.8083C185.348,-150.3117 185.348,-134.5129 185.348,-120.0113"/>
<polygon fill="none" stroke="#000000" points="181.8481,-165.9313 185.348,-175.9314 188.8481,-165.9314 181.8481,-165.9313"/>
</g>
<!-- A3 -->
<g id="node4" class="node">
<title>A3</title>
<polygon fill="none" stroke="#000000" points="257.348,-264 257.348,-296 370.348,-296 370.348,-264 257.348,-264"/>
<text text-anchor="start" x="288.0185" y="-277" font-family="Helvetica,sans-Serif" font-size="10.00" fill="#000000">ErrorHelper</text>
<polygon fill="none" stroke="#000000" points="257.348,-244 257.348,-264 370.348,-264 370.348,-244 257.348,-244"/>
<polygon fill="none" stroke="#000000" points="257.348,-212 257.348,-244 370.348,-244 370.348,-212 257.348,-212"/>
<text text-anchor="start" x="267.038" y="-225" font-family="Helvetica,sans-Serif" font-size="10.00" fill="#000000">+error_handler():void</text>
</g>
<!-- A4 -->
<g id="node5" class="node">
<title>A4</title>
<polygon fill="none" stroke="#000000" points="388.348,-266 388.348,-298 489.348,-298 489.348,-266 388.348,-266"/>
<text text-anchor="start" x="415.232" y="-279" font-family="Helvetica,sans-Serif" font-size="10.00" fill="#000000">ConstData</text>
<polygon fill="none" stroke="#000000" points="388.348,-210 388.348,-266 489.348,-266 489.348,-210 388.348,-210"/>
<text text-anchor="start" x="404.405" y="-247" font-family="Helvetica,sans-Serif" font-size="10.00" fill="#000000">&#45;error_type:Dict</text>
<text text-anchor="start" x="398.002" y="-235" font-family="Helvetica,sans-Serif" font-size="10.00" fill="#000000">&#45;button_text:String</text>
<text text-anchor="start" x="434.6795" y="-223" font-family="Helvetica,sans-Serif" font-size="10.00" fill="#000000">...</text>
</g>
<!-- A5 -->
<g id="node6" class="node">
<title>A5</title>
<polygon fill="none" stroke="#000000" points="507.348,-306 507.348,-338 632.348,-338 632.348,-306 507.348,-306"/>
<text text-anchor="start" x="540.679" y="-319" font-family="Helvetica,sans-Serif" font-size="10.00" fill="#000000">ConfigHelper</text>
<polygon fill="none" stroke="#000000" points="507.348,-250 507.348,-306 632.348,-306 632.348,-250 507.348,-250"/>
<text text-anchor="start" x="531.5105" y="-287" font-family="Helvetica,sans-Serif" font-size="10.00" fill="#000000">&#45;username:String</text>
<text text-anchor="start" x="532.345" y="-275" font-family="Helvetica,sans-Serif" font-size="10.00" fill="#000000">&#45;password:String</text>
<text text-anchor="start" x="518.452" y="-263" font-family="Helvetica,sans-Serif" font-size="10.00" fill="#000000">&#45;system_root_path:Dict</text>
<polygon fill="none" stroke="#000000" points="507.348,-170 507.348,-250 632.348,-250 632.348,-170 507.348,-170"/>
<text text-anchor="start" x="531.086" y="-231" font-family="Helvetica,sans-Serif" font-size="10.00" fill="#000000">+data_load():void</text>
<text text-anchor="start" x="529.9815" y="-219" font-family="Helvetica,sans-Serif" font-size="10.00" fill="#000000">+data_write():void</text>
<text text-anchor="start" x="517.1985" y="-207" font-family="Helvetica,sans-Serif" font-size="10.00" fill="#000000">+get_username():String</text>
<text text-anchor="start" x="518.033" y="-195" font-family="Helvetica,sans-Serif" font-size="10.00" fill="#000000">+get_password():String</text>
<text text-anchor="start" x="519.424" y="-183" font-family="Helvetica,sans-Serif" font-size="10.00" fill="#000000">+get_root_path():Dict()</text>
</g>
</g>
</svg>
