<?xml version="1.0" encoding="UTF-8" standalone="no"?>
<!DOCTYPE svg PUBLIC "-//W3C//DTD SVG 1.1//EN"
 "http://www.w3.org/Graphics/SVG/1.1/DTD/svg11.dtd">
<!-- Generated by graphviz version 2.40.1 (20161225.0304)
 -->
<!-- Title: G Pages: 1 -->
<svg width="566pt" height="388pt"
 viewBox="0.00 0.00 565.74 387.63" xmlns="http://www.w3.org/2000/svg" xmlns:xlink="http://www.w3.org/1999/xlink">
<g id="graph0" class="graph" transform="scale(1 1) rotate(0) translate(4 383.6274)">
<title>G</title>
<polygon fill="#ffffff" stroke="transparent" points="-4,4 -4,-383.6274 561.7366,-383.6274 561.7366,4 -4,4"/>
<!-- A0 -->
<g id="node1" class="node">
<title>A0</title>
<polygon fill="#f5f5dc" stroke="#000000" points="91.3027,-77 27.9413,-77 27.9413,-41 97.3027,-41 97.3027,-71 91.3027,-77"/>
<polyline fill="none" stroke="#000000" points="91.3027,-77 91.3027,-71 "/>
<polyline fill="none" stroke="#000000" points="97.3027,-71 91.3027,-71 "/>
<text text-anchor="middle" x="62.622" y="-56" font-family="Helvetica,sans-Serif" font-size="10.00" fill="#000000">figure 1.2</text>
</g>
<!-- A1 -->
<g id="node2" class="node">
<title>A1</title>
<g transform="translate(62.622,-128)" style="fill:none;stroke:black;stroke-width:1px"><circle cx="0" cy="-20" r="7.5" />
                <line x1="0" y1="-12.5" x2="0" y2="5" />
                <line x1="-15" y1="-5" x2="15" y2="-5" />
                <line x1="0" y1="5" x2="-15" y2="17" />
                <line x1="0" y1="5" x2="15" y2="17" /></g>
<text text-anchor="middle" x="62.622" y="-103" font-family="Helvetica,sans-Serif" font-size="10.00" fill="#000000">User</text>
</g>
<!-- A2 -->
<g id="node3" class="node">
<title>A2</title>
<ellipse fill="none" stroke="#000000" cx="254.199" cy="-18" rx="31.5864" ry="18"/>
<text text-anchor="middle" x="254.199" y="-15" font-family="Helvetica,sans-Serif" font-size="10.00" fill="#000000">Login</text>
</g>
<!-- A1&#45;&gt;A2 -->
<g id="edge1" class="edge">
<title>A1&#45;&gt;A2</title>
<path fill="none" stroke="#000000" d="M102.6115,-102.7535C110.182,-97.2682 117.9973,-91.5103 125.244,-86 148.3946,-68.3967 150.7951,-59.0776 176.244,-45 191.6595,-36.4726 210.2576,-29.9065 225.4213,-25.3857"/>
</g>
<!-- A6 -->
<g id="node7" class="node">
<title>A6</title>
<ellipse fill="none" stroke="#000000" cx="254.199" cy="-244" rx="51.0064" ry="18"/>
<text text-anchor="middle" x="254.199" y="-241" font-family="Helvetica,sans-Serif" font-size="10.00" fill="#000000">Upload Docs</text>
</g>
<!-- A1&#45;&gt;A6 -->
<g id="edge6" class="edge">
<title>A1&#45;&gt;A6</title>
<path fill="none" stroke="#000000" d="M102.3213,-165.9688C123.2352,-183.0754 149.9501,-202.9528 176.244,-217 187.9926,-223.2765 201.493,-228.556 213.9221,-232.7346"/>
</g>
<!-- A8 -->
<g id="node9" class="node">
<title>A8</title>
<ellipse fill="none" stroke="#000000" cx="254.199" cy="-131" rx="71.0337" ry="22.7556"/>
<text text-anchor="middle" x="254.199" y="-134" font-family="Helvetica,sans-Serif" font-size="10.00" fill="#000000">Full Text Search</text>
<text text-anchor="middle" x="254.199" y="-122" font-family="Helvetica,sans-Serif" font-size="10.00" fill="#000000">Docs</text>
</g>
<!-- A1&#45;&gt;A8 -->
<g id="edge7" class="edge">
<title>A1&#45;&gt;A8</title>
<path fill="none" stroke="#000000" d="M102.3169,-131C125.5516,-131 155.5849,-131 182.8032,-131"/>
</g>
<!-- A11 -->
<g id="node12" class="node">
<title>A11</title>
<ellipse fill="none" stroke="#000000" cx="254.199" cy="-190" rx="52.0041" ry="18"/>
<text text-anchor="middle" x="254.199" y="-187" font-family="Helvetica,sans-Serif" font-size="10.00" fill="#000000">Browse Docs</text>
</g>
<!-- A1&#45;&gt;A11 -->
<g id="edge10" class="edge">
<title>A1&#45;&gt;A11</title>
<path fill="none" stroke="#000000" d="M102.3169,-143.2248C135.4154,-153.4182 182.3102,-167.8604 215.2104,-177.9927"/>
</g>
<!-- A13 -->
<g id="node14" class="node">
<title>A13</title>
<ellipse fill="none" stroke="#000000" cx="254.199" cy="-72" rx="49.8354" ry="18"/>
<text text-anchor="middle" x="254.199" y="-69" font-family="Helvetica,sans-Serif" font-size="10.00" fill="#000000">View Events</text>
</g>
<!-- A1&#45;&gt;A13 -->
<g id="edge13" class="edge">
<title>A1&#45;&gt;A13</title>
<path fill="none" stroke="#000000" d="M102.3169,-118.7752C135.7442,-108.4805 183.2432,-93.8523 216.1867,-83.7066"/>
</g>
<!-- A3 -->
<g id="node4" class="node">
<title>A3</title>
<g transform="translate(62.622,-295)" style="fill:none;stroke:black;stroke-width:1px"><circle cx="0" cy="-20" r="7.5" />
                <line x1="0" y1="-12.5" x2="0" y2="5" />
                <line x1="-15" y1="-5" x2="15" y2="-5" />
                <line x1="0" y1="5" x2="-15" y2="17" />
                <line x1="0" y1="5" x2="15" y2="17" /></g>
<text text-anchor="middle" x="62.622" y="-270" font-family="Helvetica,sans-Serif" font-size="10.00" fill="#000000">Site Maintainer</text>
</g>
<!-- A4 -->
<g id="node5" class="node">
<title>A4</title>
<ellipse fill="none" stroke="#000000" cx="254.199" cy="-298" rx="41.7943" ry="18"/>
<text text-anchor="middle" x="254.199" y="-295" font-family="Helvetica,sans-Serif" font-size="10.00" fill="#000000">Add User</text>
</g>
<!-- A3&#45;&gt;A4 -->
<g id="edge2" class="edge">
<title>A3&#45;&gt;A4</title>
<path fill="none" stroke="#000000" d="M125.3515,-298C153.8331,-298 186.7592,-298 212.1973,-298"/>
</g>
<!-- A3&#45;&gt;A6 -->
<g id="edge4" class="edge">
<title>A3&#45;&gt;A6</title>
<path fill="none" stroke="#000000" d="M125.3515,-280.3184C154.5969,-272.0749 188.5286,-262.5106 214.2277,-255.2668"/>
</g>
<!-- A12 -->
<g id="node13" class="node">
<title>A12</title>
<ellipse fill="none" stroke="#000000" cx="254.199" cy="-357" rx="77.91" ry="22.7556"/>
<text text-anchor="middle" x="254.199" y="-360" font-family="Helvetica,sans-Serif" font-size="10.00" fill="#000000">Post New Event to</text>
<text text-anchor="middle" x="254.199" y="-348" font-family="Helvetica,sans-Serif" font-size="10.00" fill="#000000">the Web Site</text>
</g>
<!-- A3&#45;&gt;A12 -->
<g id="edge12" class="edge">
<title>A3&#45;&gt;A12</title>
<path fill="none" stroke="#000000" d="M125.3515,-317.3188C149.6863,-324.8132 177.2657,-333.3069 200.6471,-340.5076"/>
</g>
<!-- A5 -->
<g id="node6" class="node">
<title>A5</title>
<ellipse fill="none" stroke="#000000" cx="497.4603" cy="-298" rx="54.8645" ry="18"/>
<text text-anchor="middle" x="497.4603" y="-295" font-family="Helvetica,sans-Serif" font-size="10.00" fill="#000000">Add Company</text>
</g>
<!-- A4&#45;&gt;A5 -->
<g id="edge3" class="edge">
<title>A4&#45;&gt;A5</title>
<path fill="none" stroke="#000000" stroke-dasharray="5,2" d="M306.3781,-298C346.3784,-298 401.4511,-298 442.1993,-298"/>
<polygon fill="#000000" stroke="#000000" points="296.2942,-298 306.2942,-293.5001 301.2942,-298 306.2942,-298.0001 306.2942,-298.0001 306.2942,-298.0001 301.2942,-298 306.2941,-302.5001 296.2942,-298 296.2942,-298"/>
<text text-anchor="middle" x="384.669" y="-301" font-family="Helvetica,sans-Serif" font-size="10.00" fill="#000000">&lt;&lt;extend&gt;&gt;</text>
</g>
<!-- A7 -->
<g id="node8" class="node">
<title>A7</title>
<ellipse fill="none" stroke="#000000" cx="497.4603" cy="-244" rx="60.0534" ry="18"/>
<text text-anchor="middle" x="497.4603" y="-241" font-family="Helvetica,sans-Serif" font-size="10.00" fill="#000000">Manage Folders</text>
</g>
<!-- A6&#45;&gt;A7 -->
<g id="edge5" class="edge">
<title>A6&#45;&gt;A7</title>
<path fill="none" stroke="#000000" stroke-dasharray="5,2" d="M315.672,-244C352.7648,-244 399.834,-244 436.7828,-244"/>
<polygon fill="#000000" stroke="#000000" points="305.4912,-244 315.4912,-239.5001 310.4912,-244 315.4912,-244.0001 315.4912,-244.0001 315.4912,-244.0001 310.4912,-244 315.4912,-248.5001 305.4912,-244 305.4912,-244"/>
<text text-anchor="middle" x="384.669" y="-247" font-family="Helvetica,sans-Serif" font-size="10.00" fill="#000000">&lt;&lt;extend&gt;&gt;</text>
</g>
<!-- A9 -->
<g id="node10" class="node">
<title>A9</title>
<ellipse fill="none" stroke="#000000" cx="497.4603" cy="-182" rx="50.6584" ry="18"/>
<text text-anchor="middle" x="497.4603" y="-179" font-family="Helvetica,sans-Serif" font-size="10.00" fill="#000000">Preview Doc</text>
</g>
<!-- A8&#45;&gt;A9 -->
<g id="edge8" class="edge">
<title>A8&#45;&gt;A9</title>
<path fill="none" stroke="#000000" stroke-dasharray="5,2" d="M313.7074,-143.476C353.4764,-151.8136 405.3572,-162.6905 443.846,-170.7597"/>
<polygon fill="#000000" stroke="#000000" points="453.8252,-172.8519 443.1146,-175.2041 448.9316,-171.8259 444.038,-170.7999 444.038,-170.7999 444.038,-170.7999 448.9316,-171.8259 444.9614,-166.3956 453.8252,-172.8519 453.8252,-172.8519"/>
<text text-anchor="middle" x="384.669" y="-167" font-family="Helvetica,sans-Serif" font-size="10.00" fill="#000000">&lt;&lt;include&gt;&gt;</text>
</g>
<!-- A10 -->
<g id="node11" class="node">
<title>A10</title>
<ellipse fill="none" stroke="#000000" cx="497.4603" cy="-120" rx="58.8731" ry="18"/>
<text text-anchor="middle" x="497.4603" y="-117" font-family="Helvetica,sans-Serif" font-size="10.00" fill="#000000">Download Docs</text>
</g>
<!-- A8&#45;&gt;A10 -->
<g id="edge9" class="edge">
<title>A8&#45;&gt;A10</title>
<path fill="none" stroke="#000000" stroke-dasharray="5,2" d="M321.6985,-123.5701C333.5027,-122.5207 345.6762,-121.5971 357.154,-121 380.2537,-119.7983 405.521,-119.3505 428.1697,-119.2626"/>
<polygon fill="#000000" stroke="#000000" points="438.3744,-119.2462 428.3817,-123.7624 433.3744,-119.2543 428.3744,-119.2624 428.3744,-119.2624 428.3744,-119.2624 433.3744,-119.2543 428.3671,-114.7624 438.3744,-119.2462 438.3744,-119.2462"/>
<text text-anchor="middle" x="384.669" y="-124" font-family="Helvetica,sans-Serif" font-size="10.00" fill="#000000">&lt;&lt;include&gt;&gt;</text>
</g>
<!-- A11&#45;&gt;A9 -->
<g id="edge11" class="edge">
<title>A11&#45;&gt;A9</title>
<path fill="none" stroke="#000000" stroke-dasharray="5,2" d="M306.3846,-188.2838C344.6557,-187.0252 396.7215,-185.3129 436.8386,-183.9936"/>
<polygon fill="#000000" stroke="#000000" points="447.0264,-183.6586 437.1797,-188.4849 442.0291,-183.823 437.0318,-183.9874 437.0318,-183.9874 437.0318,-183.9874 442.0291,-183.823 436.8838,-179.4898 447.0264,-183.6586 447.0264,-183.6586"/>
<text text-anchor="middle" x="384.669" y="-189" font-family="Helvetica,sans-Serif" font-size="10.00" fill="#000000">&lt;&lt;include&gt;&gt;</text>
</g>
</g>
</svg>
