<?xml version="1.0" encoding="UTF-8" standalone="no"?>
<!DOCTYPE svg PUBLIC "-//W3C//DTD SVG 1.1//EN"
 "http://www.w3.org/Graphics/SVG/1.1/DTD/svg11.dtd">
<!-- Generated by graphviz version 2.40.1 (20161225.0304)
 -->
<!-- Title: G Pages: 1 -->
<svg width="349pt" height="1972pt"
 viewBox="0.00 0.00 349.00 1972.00" xmlns="http://www.w3.org/2000/svg" xmlns:xlink="http://www.w3.org/1999/xlink">
<g id="graph0" class="graph" transform="scale(1 1) rotate(0) translate(4 1968)">
<title>G</title>
<polygon fill="#ffffff" stroke="transparent" points="-4,4 -4,-1968 345,-1968 345,4 -4,4"/>
<!-- A0 -->
<g id="node1" class="node">
<title>A0</title>
<polygon fill="none" stroke="#000000" points="10.5,-68 10.5,-100 133.5,-100 133.5,-68 10.5,-68"/>
<text text-anchor="start" x="48.384" y="-81" font-family="Helvetica,sans-Serif" font-size="10.00" fill="#000000">ConstData</text>
<polygon fill="none" stroke="#000000" points="10.5,0 10.5,-68 133.5,-68 133.5,0 10.5,0"/>
<text text-anchor="start" x="20.0455" y="-49" font-family="Helvetica,sans-Serif" font-size="10.00" fill="#000000">&#45;error_type:Dict{Status}</text>
<text text-anchor="start" x="31.154" y="-37" font-family="Helvetica,sans-Serif" font-size="10.00" fill="#000000">&#45;button_text:String</text>
<text text-anchor="start" x="45.885" y="-25" font-family="Helvetica,sans-Serif" font-size="10.00" fill="#000000">&#45;Status:DIct</text>
<text text-anchor="start" x="67.8315" y="-13" font-family="Helvetica,sans-Serif" font-size="10.00" fill="#000000">...</text>
</g>
<!-- A1 -->
<g id="node2" class="node">
<title>A1</title>
<polygon fill="none" stroke="#000000" points="9.5,-254 9.5,-286 134.5,-286 134.5,-254 9.5,-254"/>
<text text-anchor="start" x="42.831" y="-267" font-family="Helvetica,sans-Serif" font-size="10.00" fill="#000000">ConfigHelper</text>
<polygon fill="none" stroke="#000000" points="9.5,-198 9.5,-254 134.5,-254 134.5,-198 9.5,-198"/>
<text text-anchor="start" x="33.6625" y="-235" font-family="Helvetica,sans-Serif" font-size="10.00" fill="#000000">&#45;username:String</text>
<text text-anchor="start" x="34.497" y="-223" font-family="Helvetica,sans-Serif" font-size="10.00" fill="#000000">&#45;password:String</text>
<text text-anchor="start" x="20.604" y="-211" font-family="Helvetica,sans-Serif" font-size="10.00" fill="#000000">&#45;system_root_path:Dict</text>
<polygon fill="none" stroke="#000000" points="9.5,-118 9.5,-198 134.5,-198 134.5,-118 9.5,-118"/>
<text text-anchor="start" x="33.238" y="-179" font-family="Helvetica,sans-Serif" font-size="10.00" fill="#000000">+data_load():void</text>
<text text-anchor="start" x="32.1335" y="-167" font-family="Helvetica,sans-Serif" font-size="10.00" fill="#000000">+data_write():void</text>
<text text-anchor="start" x="19.3505" y="-155" font-family="Helvetica,sans-Serif" font-size="10.00" fill="#000000">+get_username():String</text>
<text text-anchor="start" x="20.185" y="-143" font-family="Helvetica,sans-Serif" font-size="10.00" fill="#000000">+get_password():String</text>
<text text-anchor="start" x="21.576" y="-131" font-family="Helvetica,sans-Serif" font-size="10.00" fill="#000000">+get_root_path():Dict()</text>
</g>
<!-- A2 -->
<g id="node3" class="node">
<title>A2</title>
<polygon fill="none" stroke="#000000" points=".5,-404 .5,-436 143.5,-436 143.5,-404 .5,-404"/>
<text text-anchor="start" x="35.8815" y="-417" font-family="Helvetica,sans-Serif" font-size="10.00" fill="#000000">DatabaseHelper</text>
<polygon fill="none" stroke="#000000" points=".5,-360 .5,-404 143.5,-404 143.5,-360 .5,-360"/>
<text text-anchor="start" x="27.2635" y="-385" font-family="Helvetica,sans-Serif" font-size="10.00" fill="#000000">&#45;database_path:Dict</text>
<text text-anchor="start" x="24.764" y="-373" font-family="Helvetica,sans-Serif" font-size="10.00" fill="#000000">&#45;sql_database:sqlite3</text>
<polygon fill="none" stroke="#000000" points=".5,-304 .5,-360 143.5,-360 143.5,-304 .5,-304"/>
<text text-anchor="start" x="10.462" y="-341" font-family="Helvetica,sans-Serif" font-size="10.00" fill="#000000">+node_tag_write():STATUS</text>
<text text-anchor="start" x="16.0215" y="-329" font-family="Helvetica,sans-Serif" font-size="10.00" fill="#000000">+tree_tag_write():STAUS</text>
<text text-anchor="start" x="19.909" y="-317" font-family="Helvetica,sans-Serif" font-size="10.00" fill="#000000">+tag_search():STATUS</text>
</g>
<!-- A3 -->
<g id="node4" class="node">
<title>A3</title>
<polygon fill="none" stroke="#000000" points="15.5,-506 15.5,-538 128.5,-538 128.5,-506 15.5,-506"/>
<text text-anchor="start" x="46.1705" y="-519" font-family="Helvetica,sans-Serif" font-size="10.00" fill="#000000">ErrorHelper</text>
<polygon fill="none" stroke="#000000" points="15.5,-486 15.5,-506 128.5,-506 128.5,-486 15.5,-486"/>
<polygon fill="none" stroke="#000000" points="15.5,-454 15.5,-486 128.5,-486 128.5,-454 15.5,-454"/>
<text text-anchor="start" x="25.19" y="-467" font-family="Helvetica,sans-Serif" font-size="10.00" fill="#000000">+error_handler():void</text>
</g>
<!-- A4 -->
<g id="node5" class="node">
<title>A4</title>
<polygon fill="none" stroke="#000000" points="14.5,-620 14.5,-652 128.5,-652 128.5,-620 14.5,-620"/>
<text text-anchor="start" x="48.1695" y="-633" font-family="Helvetica,sans-Serif" font-size="10.00" fill="#000000">XmlHelper</text>
<polygon fill="none" stroke="#000000" points="14.5,-600 14.5,-620 128.5,-620 128.5,-600 14.5,-600"/>
<polygon fill="none" stroke="#000000" points="14.5,-556 14.5,-600 128.5,-600 128.5,-556 14.5,-556"/>
<text text-anchor="start" x="32.4575" y="-581" font-family="Helvetica,sans-Serif" font-size="10.00" fill="#000000">+add_node():void</text>
<text text-anchor="start" x="24.409" y="-569" font-family="Helvetica,sans-Serif" font-size="10.00" fill="#000000">+xml_generate():void</text>
</g>
<!-- A5 -->
<g id="node6" class="node">
<title>A5</title>
<polygon fill="none" stroke="#000000" points="1.5,-746 1.5,-778 142.5,-778 142.5,-746 1.5,-746"/>
<text text-anchor="start" x="49.4995" y="-759" font-family="Helvetica,sans-Serif" font-size="10.00" fill="#000000">NetHelper</text>
<polygon fill="none" stroke="#000000" points="1.5,-726 1.5,-746 142.5,-746 142.5,-726 1.5,-726"/>
<polygon fill="none" stroke="#000000" points="1.5,-670 1.5,-726 142.5,-726 142.5,-670 1.5,-670"/>
<text text-anchor="start" x="11.2965" y="-707" font-family="Helvetica,sans-Serif" font-size="10.00" fill="#000000">+connection_init():STATUS</text>
<text text-anchor="start" x="44.9155" y="-695" font-family="Helvetica,sans-Serif" font-size="10.00" fill="#000000">+url_parse()</text>
<text text-anchor="start" x="32.688" y="-683" font-family="Helvetica,sans-Serif" font-size="10.00" fill="#000000">+file_downloads()</text>
</g>
<!-- A6 -->
<g id="node7" class="node">
<title>A6</title>
<polygon fill="none" stroke="#000000" points="18.5,-920 18.5,-952 124.5,-952 124.5,-920 18.5,-920"/>
<text text-anchor="start" x="59.552" y="-933" font-family="Helvetica,sans-Serif" font-size="10.00" fill="#000000">Node</text>
<polygon fill="none" stroke="#000000" points="18.5,-876 18.5,-920 124.5,-920 124.5,-876 18.5,-876"/>
<text text-anchor="start" x="29.8185" y="-901" font-family="Helvetica,sans-Serif" font-size="10.00" fill="#000000">&#45;father_node:Node</text>
<text text-anchor="start" x="36.492" y="-889" font-family="Helvetica,sans-Serif" font-size="10.00" fill="#000000">&#45;child_node:List</text>
<polygon fill="none" stroke="#000000" points="18.5,-796 18.5,-876 124.5,-876 124.5,-796 18.5,-796"/>
<text text-anchor="start" x="33.2975" y="-857" font-family="Helvetica,sans-Serif" font-size="10.00" fill="#000000">+add_child():void</text>
<text text-anchor="start" x="28.019" y="-845" font-family="Helvetica,sans-Serif" font-size="10.00" fill="#000000">+delete_child():void</text>
<text text-anchor="start" x="32.463" y="-833" font-family="Helvetica,sans-Serif" font-size="10.00" fill="#000000">+set_father():void</text>
<text text-anchor="start" x="32.1835" y="-821" font-family="Helvetica,sans-Serif" font-size="10.00" fill="#000000">+get_father():void</text>
<text text-anchor="start" x="37.607" y="-809" font-family="Helvetica,sans-Serif" font-size="10.00" fill="#000000">get_child():void</text>
</g>
<!-- A9 -->
<g id="node10" class="node">
<title>A9</title>
<polygon fill="none" stroke="#000000" points="212,-1007 212,-1039 322,-1039 322,-1007 212,-1007"/>
<text text-anchor="start" x="250.053" y="-1020" font-family="Helvetica,sans-Serif" font-size="10.00" fill="#000000">UINode</text>
<polygon fill="none" stroke="#000000" points="212,-939 212,-1007 322,-1007 322,-939 212,-939"/>
<text text-anchor="start" x="240.056" y="-988" font-family="Helvetica,sans-Serif" font-size="10.00" fill="#000000">&#45;color:String</text>
<text text-anchor="start" x="231.9925" y="-976" font-family="Helvetica,sans-Serif" font-size="10.00" fill="#000000">&#45;x_position:float</text>
<text text-anchor="start" x="231.9925" y="-964" font-family="Helvetica,sans-Serif" font-size="10.00" fill="#000000">&#45;y_position:float</text>
<text text-anchor="start" x="242.275" y="-952" font-family="Helvetica,sans-Serif" font-size="10.00" fill="#000000">&#45;zoom:float</text>
<polygon fill="none" stroke="#000000" points="212,-871 212,-939 322,-939 322,-871 212,-871"/>
<text text-anchor="start" x="231.857" y="-920" font-family="Helvetica,sans-Serif" font-size="10.00" fill="#000000">+paint():STAUS</text>
<text text-anchor="start" x="229.912" y="-908" font-family="Helvetica,sans-Serif" font-size="10.00" fill="#000000">+set_color():void</text>
<text text-anchor="start" x="235.606" y="-896" font-family="Helvetica,sans-Serif" font-size="10.00" fill="#000000">set_text():void</text>
<text text-anchor="start" x="221.9935" y="-884" font-family="Helvetica,sans-Serif" font-size="10.00" fill="#000000">set_text_color():void</text>
</g>
<!-- A6&#45;&gt;A9 -->
<g id="edge1" class="edge">
<title>A6&#45;&gt;A9</title>
<path fill="none" stroke="#000000" d="M134.0531,-899.9171C159.0493,-910.2736 187.5894,-922.0984 211.8017,-932.1301"/>
<polygon fill="none" stroke="#000000" points="135.2412,-896.6209 124.663,-896.0266 132.5617,-903.0878 135.2412,-896.6209"/>
</g>
<!-- A10 -->
<g id="node11" class="node">
<title>A10</title>
<polygon fill="none" stroke="#000000" points="217,-821 217,-853 317,-853 317,-821 217,-821"/>
<text text-anchor="start" x="246.999" y="-834" font-family="Helvetica,sans-Serif" font-size="10.00" fill="#000000">FileNode</text>
<polygon fill="none" stroke="#000000" points="217,-777 217,-821 317,-821 317,-777 217,-777"/>
<text text-anchor="start" x="241.161" y="-802" font-family="Helvetica,sans-Serif" font-size="10.00" fill="#000000">&#45;path:String</text>
<text text-anchor="start" x="249.219" y="-790" font-family="Helvetica,sans-Serif" font-size="10.00" fill="#000000">&#45;tag:List</text>
<polygon fill="none" stroke="#000000" points="217,-733 217,-777 317,-777 317,-733 217,-733"/>
<text text-anchor="start" x="226.849" y="-758" font-family="Helvetica,sans-Serif" font-size="10.00" fill="#000000">+get_path():String</text>
<text text-anchor="start" x="234.907" y="-746" font-family="Helvetica,sans-Serif" font-size="10.00" fill="#000000">+get_tag():List</text>
</g>
<!-- A6&#45;&gt;A10 -->
<g id="edge2" class="edge">
<title>A6&#45;&gt;A10</title>
<path fill="none" stroke="#000000" d="M133.9522,-848.1246C160.7411,-837.0254 191.6156,-824.2335 216.8751,-813.7679"/>
<polygon fill="none" stroke="#000000" points="132.5617,-844.9122 124.663,-851.9734 135.2412,-851.3791 132.5617,-844.9122"/>
</g>
<!-- A7 -->
<g id="node8" class="node">
<title>A7</title>
<polygon fill="none" stroke="#000000" points="24.5,-1196 24.5,-1228 119.5,-1228 119.5,-1196 24.5,-1196"/>
<text text-anchor="start" x="61.722" y="-1209" font-family="Helvetica,sans-Serif" font-size="10.00" fill="#000000">Tree</text>
<polygon fill="none" stroke="#000000" points="24.5,-1164 24.5,-1196 119.5,-1196 119.5,-1164 24.5,-1164"/>
<text text-anchor="start" x="34.4875" y="-1177" font-family="Helvetica,sans-Serif" font-size="10.00" fill="#000000">&#45;root_node:Node</text>
<polygon fill="none" stroke="#000000" points="24.5,-1144 24.5,-1164 119.5,-1164 119.5,-1144 24.5,-1144"/>
</g>
<!-- A11 -->
<g id="node12" class="node">
<title>A11</title>
<polygon fill="none" stroke="#000000" points="199,-1283 199,-1315 336,-1315 336,-1283 199,-1283"/>
<text text-anchor="start" x="249.169" y="-1296" font-family="Helvetica,sans-Serif" font-size="10.00" fill="#000000">FileTree</text>
<polygon fill="none" stroke="#000000" points="199,-1227 199,-1283 336,-1283 336,-1227 199,-1227"/>
<text text-anchor="start" x="221.9345" y="-1264" font-family="Helvetica,sans-Serif" font-size="10.00" fill="#000000">&#45;root_node:FileNode</text>
<text text-anchor="start" x="230.2685" y="-1252" font-family="Helvetica,sans-Serif" font-size="10.00" fill="#000000">&#45;root_path:String</text>
<text text-anchor="start" x="214.16" y="-1240" font-family="Helvetica,sans-Serif" font-size="10.00" fill="#000000">&#45;file_system_type:String</text>
<polygon fill="none" stroke="#000000" points="199,-1195 199,-1227 336,-1227 336,-1195 199,-1195"/>
<text text-anchor="start" x="208.742" y="-1208" font-family="Helvetica,sans-Serif" font-size="10.00" fill="#000000">+fetch_file_tree():STATUS</text>
</g>
<!-- A7&#45;&gt;A11 -->
<g id="edge3" class="edge">
<title>A7&#45;&gt;A11</title>
<path fill="none" stroke="#000000" d="M128.5514,-1206.1358C150.4292,-1213.8574 175.6183,-1222.7476 198.4632,-1230.8105"/>
<polygon fill="none" stroke="#000000" points="129.6695,-1202.8189 119.0747,-1202.7911 127.3397,-1209.4198 129.6695,-1202.8189"/>
</g>
<!-- A12 -->
<g id="node13" class="node">
<title>A12</title>
<polygon fill="none" stroke="#000000" points="201,-1145 201,-1177 333,-1177 333,-1145 201,-1145"/>
<text text-anchor="start" x="251.723" y="-1158" font-family="Helvetica,sans-Serif" font-size="10.00" fill="#000000">UITree</text>
<polygon fill="none" stroke="#000000" points="201,-1089 201,-1145 333,-1145 333,-1089 201,-1089"/>
<text text-anchor="start" x="224.4885" y="-1126" font-family="Helvetica,sans-Serif" font-size="10.00" fill="#000000">&#45;root_node:UINode</text>
<text text-anchor="start" x="229.7685" y="-1114" font-family="Helvetica,sans-Serif" font-size="10.00" fill="#000000">&#45;root_path:String</text>
<text text-anchor="start" x="213.66" y="-1102" font-family="Helvetica,sans-Serif" font-size="10.00" fill="#000000">&#45;file_system_type:String</text>
<polygon fill="none" stroke="#000000" points="201,-1057 201,-1089 333,-1089 333,-1057 201,-1057"/>
<text text-anchor="start" x="210.741" y="-1070" font-family="Helvetica,sans-Serif" font-size="10.00" fill="#000000">+fetch_ui_tree():STATUS</text>
</g>
<!-- A7&#45;&gt;A12 -->
<g id="edge4" class="edge">
<title>A7&#45;&gt;A12</title>
<path fill="none" stroke="#000000" d="M128.5249,-1165.8736C151.123,-1157.8978 177.2572,-1148.6739 200.6928,-1140.4026"/>
<polygon fill="none" stroke="#000000" points="127.3397,-1162.5802 119.0747,-1169.2089 129.6695,-1169.1811 127.3397,-1162.5802"/>
</g>
<!-- A8 -->
<g id="node9" class="node">
<title>A8</title>
<polygon fill="none" stroke="#000000" points="9.5,-1478 9.5,-1510 134.5,-1510 134.5,-1478 9.5,-1478"/>
<text text-anchor="start" x="61.997" y="-1491" font-family="Helvetica,sans-Serif" font-size="10.00" fill="#000000">Pipe</text>
<polygon fill="none" stroke="#000000" points="9.5,-1446 9.5,-1478 134.5,-1478 134.5,-1446 9.5,-1446"/>
<text text-anchor="start" x="22.5465" y="-1459" font-family="Helvetica,sans-Serif" font-size="10.00" fill="#000000">&#45;file_destination:String</text>
<polygon fill="none" stroke="#000000" points="9.5,-1414 9.5,-1446 134.5,-1446 134.5,-1414 9.5,-1414"/>
<text text-anchor="start" x="19.0735" y="-1427" font-family="Helvetica,sans-Serif" font-size="10.00" fill="#000000">+file_system_scan:Tree</text>
</g>
<!-- A13 -->
<g id="node14" class="node">
<title>A13</title>
<polygon fill="none" stroke="#000000" points="193,-1559 193,-1591 341,-1591 341,-1559 193,-1559"/>
<text text-anchor="start" x="248.944" y="-1572" font-family="Helvetica,sans-Serif" font-size="10.00" fill="#000000">FilePipe</text>
<polygon fill="none" stroke="#000000" points="193,-1527 193,-1559 341,-1559 341,-1527 193,-1527"/>
<text text-anchor="start" x="217.5465" y="-1540" font-family="Helvetica,sans-Serif" font-size="10.00" fill="#000000">&#45;file_destination:String</text>
<polygon fill="none" stroke="#000000" points="193,-1471 193,-1527 341,-1527 341,-1471 193,-1471"/>
<text text-anchor="start" x="218.534" y="-1508" font-family="Helvetica,sans-Serif" font-size="10.00" fill="#000000">+xml_write():STATUS</text>
<text text-anchor="start" x="220.4745" y="-1496" font-family="Helvetica,sans-Serif" font-size="10.00" fill="#000000">+xml_read():FileTree</text>
<text text-anchor="start" x="202.6915" y="-1484" font-family="Helvetica,sans-Serif" font-size="10.00" fill="#000000">+file_system_scan():FileTree</text>
</g>
<!-- A8&#45;&gt;A13 -->
<g id="edge5" class="edge">
<title>A8&#45;&gt;A13</title>
<path fill="none" stroke="#000000" d="M143.9388,-1487.5666C159.8641,-1493.1873 176.7519,-1499.1477 192.7473,-1504.7932"/>
<polygon fill="none" stroke="#000000" points="144.7589,-1484.1445 134.1641,-1484.1167 142.4291,-1490.7455 144.7589,-1484.1445"/>
</g>
<!-- A14 -->
<g id="node15" class="node">
<title>A14</title>
<polygon fill="none" stroke="#000000" points="193,-1421 193,-1453 341,-1453 341,-1421 193,-1421"/>
<text text-anchor="start" x="249.2185" y="-1434" font-family="Helvetica,sans-Serif" font-size="10.00" fill="#000000">NetPipe</text>
<polygon fill="none" stroke="#000000" points="193,-1365 193,-1421 341,-1421 341,-1365 193,-1365"/>
<text text-anchor="start" x="230.327" y="-1402" font-family="Helvetica,sans-Serif" font-size="10.00" fill="#000000">&#45;usename:String</text>
<text text-anchor="start" x="229.497" y="-1390" font-family="Helvetica,sans-Serif" font-size="10.00" fill="#000000">&#45;password:String</text>
<text text-anchor="start" x="217.5465" y="-1378" font-family="Helvetica,sans-Serif" font-size="10.00" fill="#000000">&#45;file_destination:String</text>
<polygon fill="none" stroke="#000000" points="193,-1333 193,-1365 341,-1365 341,-1333 193,-1333"/>
<text text-anchor="start" x="202.6915" y="-1346" font-family="Helvetica,sans-Serif" font-size="10.00" fill="#000000">+file_system_scan():FileTree</text>
</g>
<!-- A8&#45;&gt;A14 -->
<g id="edge6" class="edge">
<title>A8&#45;&gt;A14</title>
<path fill="none" stroke="#000000" d="M143.9388,-1436.4334C159.8641,-1430.8127 176.7519,-1424.8523 192.7473,-1419.2068"/>
<polygon fill="none" stroke="#000000" points="142.4291,-1433.2545 134.1641,-1439.8833 144.7589,-1439.8555 142.4291,-1433.2545"/>
</g>
<!-- A15 -->
<g id="node16" class="node">
<title>A15</title>
<polygon fill="none" stroke="#000000" points="6.5,-1608 6.5,-1640 137.5,-1640 137.5,-1608 6.5,-1608"/>
<text text-anchor="start" x="67.001" y="-1621" font-family="Helvetica,sans-Serif" font-size="10.00" fill="#000000">UI</text>
<polygon fill="none" stroke="#000000" points="6.5,-1528 6.5,-1608 137.5,-1608 137.5,-1528 6.5,-1528"/>
<text text-anchor="start" x="25.5945" y="-1589" font-family="Helvetica,sans-Serif" font-size="10.00" fill="#000000">&#45;top_panel:TopPanel</text>
<text text-anchor="start" x="26.1505" y="-1577" font-family="Helvetica,sans-Serif" font-size="10.00" fill="#000000">&#45;left_panel:LeftPanel</text>
<text text-anchor="start" x="19.7665" y="-1565" font-family="Helvetica,sans-Serif" font-size="10.00" fill="#000000">&#45;right_panel:RightPanel</text>
<text text-anchor="start" x="22.2655" y="-1553" font-family="Helvetica,sans-Serif" font-size="10.00" fill="#000000">&#45;tree_panel:TreePanel</text>
<text text-anchor="start" x="16.1505" y="-1541" font-family="Helvetica,sans-Serif" font-size="10.00" fill="#000000">&#45;menu_panel:MenuPanel</text>
</g>
<!-- A16 -->
<g id="node17" class="node">
<title>A16</title>
<polygon fill="none" stroke="#000000" points="106.7923,-1694 36.2077,-1694 36.2077,-1658 106.7923,-1658 106.7923,-1694"/>
<text text-anchor="middle" x="71.5" y="-1673" font-family="Helvetica,sans-Serif" font-size="10.00" fill="#000000">TopPanel</text>
</g>
<!-- A17 -->
<g id="node18" class="node">
<title>A17</title>
<polygon fill="none" stroke="#000000" points="106.7414,-1748 36.2586,-1748 36.2586,-1712 106.7414,-1712 106.7414,-1748"/>
<text text-anchor="middle" x="71.5" y="-1727" font-family="Helvetica,sans-Serif" font-size="10.00" fill="#000000">LeftPanel</text>
</g>
<!-- A18 -->
<g id="node19" class="node">
<title>A18</title>
<polygon fill="none" stroke="#000000" points="109.9001,-1802 33.0999,-1802 33.0999,-1766 109.9001,-1766 109.9001,-1802"/>
<text text-anchor="middle" x="71.5" y="-1781" font-family="Helvetica,sans-Serif" font-size="10.00" fill="#000000">RightPanel</text>
</g>
<!-- A19 -->
<g id="node20" class="node">
<title>A19</title>
<polygon fill="none" stroke="#000000" points="108.6211,-1856 34.3789,-1856 34.3789,-1820 108.6211,-1820 108.6211,-1856"/>
<text text-anchor="middle" x="71.5" y="-1835" font-family="Helvetica,sans-Serif" font-size="10.00" fill="#000000">TreePanel</text>
</g>
<!-- A20 -->
<g id="node21" class="node">
<title>A20</title>
<polygon fill="none" stroke="#000000" points="110.5722,-1910 32.4278,-1910 32.4278,-1874 110.5722,-1874 110.5722,-1910"/>
<text text-anchor="middle" x="71.5" y="-1889" font-family="Helvetica,sans-Serif" font-size="10.00" fill="#000000">MenuPanel</text>
</g>
<!-- A21 -->
<g id="node22" class="node">
<title>A21</title>
<polygon fill="#fff8dc" stroke="#000000" points="112.0501,-1964 24.9499,-1964 24.9499,-1928 118.0501,-1928 118.0501,-1958 112.0501,-1964"/>
<polyline fill="none" stroke="#000000" points="112.0501,-1964 112.0501,-1958 "/>
<polyline fill="none" stroke="#000000" points="118.0501,-1958 112.0501,-1958 "/>
<text text-anchor="middle" x="71.5" y="-1943" font-family="Helvetica,sans-Serif" font-size="10.00" fill="#000000">Class Diagram</text>
</g>
</g>
</svg>
