<?xml version="1.0" encoding="UTF-8" standalone="no"?>
<!DOCTYPE svg PUBLIC "-//W3C//DTD SVG 1.1//EN"
 "http://www.w3.org/Graphics/SVG/1.1/DTD/svg11.dtd">
<!-- Generated by graphviz version 2.40.1 (20161225.0304)
 -->
<!-- Title: G Pages: 1 -->
<svg width="777pt" height="265pt"
 viewBox="0.00 0.00 777.28 265.00" xmlns="http://www.w3.org/2000/svg" xmlns:xlink="http://www.w3.org/1999/xlink">
<g id="graph0" class="graph" transform="scale(1 1) rotate(0) translate(4 261)">
<title>G</title>
<polygon fill="#ffffff" stroke="transparent" points="-4,4 -4,-261 773.2848,-261 773.2848,4 -4,4"/>
<!-- A0 -->
<g id="node1" class="node">
<title>A0</title>
<polygon fill="#f5f5dc" stroke="#000000" points="315.8383,-239 225.147,-239 225.147,-203 321.8383,-203 321.8383,-233 315.8383,-239"/>
<polyline fill="none" stroke="#000000" points="315.8383,-239 315.8383,-233 "/>
<polyline fill="none" stroke="#000000" points="321.8383,-233 315.8383,-233 "/>
<text text-anchor="middle" x="273.4927" y="-224" font-family="Helvetica,sans-Serif" font-size="10.00" fill="#000000">figure 1.1: User</text>
<text text-anchor="middle" x="273.4927" y="-212" font-family="Helvetica,sans-Serif" font-size="10.00" fill="#000000">Case</text>
</g>
<!-- A1 -->
<g id="node2" class="node">
<title>A1</title>
<g transform="translate(379.4927,-218)" style="fill:none;stroke:black;stroke-width:1px"><circle cx="0" cy="-20" r="7.5" />
                <line x1="0" y1="-12.5" x2="0" y2="5" />
                <line x1="-15" y1="-5" x2="15" y2="-5" />
                <line x1="0" y1="5" x2="-15" y2="17" />
                <line x1="0" y1="5" x2="15" y2="17" /></g>
<text text-anchor="middle" x="379.4927" y="-193" font-family="Helvetica,sans-Serif" font-size="10.00" fill="#000000">User</text>
</g>
<!-- A2 -->
<g id="node3" class="node">
<title>A2</title>
<ellipse fill="none" stroke="#000000" cx="81.4927" cy="-116" rx="32.7567" ry="18"/>
<text text-anchor="middle" x="81.4927" y="-113" font-family="Helvetica,sans-Serif" font-size="10.00" fill="#000000">登录</text>
</g>
<!-- A1&#45;&gt;A2 -->
<g id="edge1" class="edge">
<title>A1&#45;&gt;A2</title>
<path fill="none" stroke="#000000" d="M339.6257,-189.8348C336.6127,-188.0676 333.5523,-186.4315 330.4927,-185 244.6698,-144.8477 213.3371,-164.0958 123.4927,-134 118.0766,-132.1858 112.3848,-129.9682 107.0008,-127.7177"/>
</g>
<!-- A3 -->
<g id="node4" class="node">
<title>A3</title>
<ellipse fill="none" stroke="#000000" cx="202.4927" cy="-116" rx="69.8496" ry="18"/>
<text text-anchor="middle" x="202.4927" y="-113" font-family="Helvetica,sans-Serif" font-size="10.00" fill="#000000">选择文件系统来源</text>
</g>
<!-- A1&#45;&gt;A3 -->
<g id="edge2" class="edge">
<title>A1&#45;&gt;A3</title>
<path fill="none" stroke="#000000" d="M339.699,-191.065C336.6176,-188.9627 333.5258,-186.9187 330.4927,-185 299.0233,-165.0936 261.3248,-145.22 235.0222,-131.9498"/>
</g>
<!-- A7 -->
<g id="node8" class="node">
<title>A7</title>
<ellipse fill="none" stroke="#000000" cx="330.4927" cy="-116" rx="40.6302" ry="18"/>
<text text-anchor="middle" x="330.4927" y="-113" font-family="Helvetica,sans-Serif" font-size="10.00" fill="#000000">增删查改</text>
</g>
<!-- A1&#45;&gt;A7 -->
<g id="edge6" class="edge">
<title>A1&#45;&gt;A7</title>
<path fill="none" stroke="#000000" d="M362.6296,-184.865C354.6014,-167.6616 345.3576,-147.8535 338.8508,-133.9104"/>
</g>
<!-- A8 -->
<g id="node9" class="node">
<title>A8</title>
<ellipse fill="none" stroke="#000000" cx="428.4927" cy="-116" rx="39.1569" ry="18"/>
<text text-anchor="middle" x="428.4927" y="-113" font-family="Helvetica,sans-Serif" font-size="10.00" fill="#000000">添加Tag</text>
</g>
<!-- A1&#45;&gt;A8 -->
<g id="edge7" class="edge">
<title>A1&#45;&gt;A8</title>
<path fill="none" stroke="#000000" d="M396.3557,-184.865C404.4393,-167.543 413.7553,-147.5801 420.2687,-133.6227"/>
</g>
<!-- A9 -->
<g id="node10" class="node">
<title>A9</title>
<ellipse fill="none" stroke="#000000" cx="535.4927" cy="-116" rx="49.8438" ry="18"/>
<text text-anchor="middle" x="535.4927" y="-113" font-family="Helvetica,sans-Serif" font-size="10.00" fill="#000000">备份&amp;共享</text>
</g>
<!-- A1&#45;&gt;A9 -->
<g id="edge8" class="edge">
<title>A1&#45;&gt;A9</title>
<path fill="none" stroke="#000000" d="M419.2617,-194.2324C448.5096,-174.5463 487.2855,-148.4471 511.8182,-131.9348"/>
</g>
<!-- A10 -->
<g id="node11" class="node">
<title>A10</title>
<ellipse fill="none" stroke="#000000" cx="686.4927" cy="-116" rx="82.5849" ry="18"/>
<text text-anchor="middle" x="686.4927" y="-113" font-family="Helvetica,sans-Serif" font-size="10.00" fill="#000000">浏览多种文件系统文件</text>
</g>
<!-- A1&#45;&gt;A10 -->
<g id="edge9" class="edge">
<title>A1&#45;&gt;A10</title>
<path fill="none" stroke="#000000" d="M419.3128,-207.3807C476.6645,-187.7653 582.1844,-151.6755 642.0198,-131.2106"/>
</g>
<!-- A4 -->
<g id="node5" class="node">
<title>A4</title>
<ellipse fill="none" stroke="#000000" cx="55.4927" cy="-18" rx="55.4853" ry="18"/>
<text text-anchor="middle" x="55.4927" y="-15" font-family="Helvetica,sans-Serif" font-size="10.00" fill="#000000">本地文件系统</text>
</g>
<!-- A3&#45;&gt;A4 -->
<g id="edge3" class="edge">
<title>A3&#45;&gt;A4</title>
<path fill="none" stroke="#000000" stroke-dasharray="5,2" d="M177.2225,-99.1532C152.6304,-82.7585 115.1415,-57.7659 88.2673,-39.8497"/>
<polygon fill="#000000" stroke="#000000" points="79.9446,-34.3013 90.7613,-36.1041 84.1049,-37.0748 88.2652,-39.8484 88.2652,-39.8484 88.2652,-39.8484 84.1049,-37.0748 85.769,-43.5926 79.9446,-34.3013 79.9446,-34.3013"/>
<text text-anchor="middle" x="166.0077" y="-64" font-family="Helvetica,sans-Serif" font-size="10.00" fill="#000000">&lt;&lt;include&gt;&gt;</text>
</g>
<!-- A5 -->
<g id="node6" class="node">
<title>A5</title>
<ellipse fill="none" stroke="#000000" cx="202.4927" cy="-18" rx="73.4107" ry="18"/>
<text text-anchor="middle" x="202.4927" y="-15" font-family="Helvetica,sans-Serif" font-size="10.00" fill="#000000">网络学堂文件系统</text>
</g>
<!-- A3&#45;&gt;A5 -->
<g id="edge4" class="edge">
<title>A3&#45;&gt;A5</title>
<path fill="none" stroke="#000000" stroke-dasharray="5,2" d="M202.4927,-97.5669C202.4927,-83.1034 202.4927,-62.7239 202.4927,-46.2111"/>
<polygon fill="#000000" stroke="#000000" points="202.4927,-36.0193 206.9928,-46.0192 202.4927,-41.0193 202.4928,-46.0193 202.4928,-46.0193 202.4928,-46.0193 202.4927,-41.0193 197.9928,-46.0193 202.4927,-36.0193 202.4927,-36.0193"/>
<text text-anchor="middle" x="230.0077" y="-64" font-family="Helvetica,sans-Serif" font-size="10.00" fill="#000000">&lt;&lt;include&gt;&gt;</text>
</g>
<!-- A6 -->
<g id="node7" class="node">
<title>A6</title>
<ellipse fill="none" stroke="#000000" cx="352.4927" cy="-18" rx="58.2824" ry="18"/>
<text text-anchor="middle" x="352.4927" y="-15" font-family="Helvetica,sans-Serif" font-size="10.00" fill="#000000">其他文件系统</text>
</g>
<!-- A3&#45;&gt;A6 -->
<g id="edge5" class="edge">
<title>A3&#45;&gt;A6</title>
<path fill="none" stroke="#000000" stroke-dasharray="5,2" d="M228.2786,-99.1532C253.3725,-82.7585 291.6265,-57.7659 319.0492,-39.8497"/>
<polygon fill="#000000" stroke="#000000" points="327.5417,-34.3013 321.6313,-43.5381 323.3558,-37.0361 319.17,-39.7709 319.17,-39.7709 319.17,-39.7709 323.3558,-37.0361 316.7087,-36.0036 327.5417,-34.3013 327.5417,-34.3013"/>
<text text-anchor="middle" x="314.0077" y="-64" font-family="Helvetica,sans-Serif" font-size="10.00" fill="#000000">&lt;&lt;include&gt;&gt;</text>
</g>
<!-- A11 -->
<g id="node12" class="node">
<title>A11</title>
<ellipse fill="none" stroke="#000000" cx="686.4927" cy="-18" rx="46.4368" ry="18"/>
<text text-anchor="middle" x="686.4927" y="-15" font-family="Helvetica,sans-Serif" font-size="10.00" fill="#000000">文件树展示</text>
</g>
<!-- A10&#45;&gt;A11 -->
<g id="edge10" class="edge">
<title>A10&#45;&gt;A11</title>
<path fill="none" stroke="#000000" stroke-dasharray="5,2" d="M686.4927,-97.5669C686.4927,-83.1034 686.4927,-62.7239 686.4927,-46.2111"/>
<polygon fill="#000000" stroke="#000000" points="686.4927,-36.0193 690.9928,-46.0192 686.4927,-41.0193 686.4928,-46.0193 686.4928,-46.0193 686.4928,-46.0193 686.4927,-41.0193 681.9928,-46.0193 686.4927,-36.0193 686.4927,-36.0193"/>
<text text-anchor="middle" x="714.0077" y="-64" font-family="Helvetica,sans-Serif" font-size="10.00" fill="#000000">&lt;&lt;include&gt;&gt;</text>
</g>
</g>
</svg>
