<?xml version="1.0" encoding="UTF-8" standalone="no"?>
<!DOCTYPE svg PUBLIC "-//W3C//DTD SVG 1.1//EN"
 "http://www.w3.org/Graphics/SVG/1.1/DTD/svg11.dtd">
<!-- Generated by graphviz version 2.40.1 (20161225.0304)
 -->
<!-- Title: G Pages: 1 -->
<svg width="289pt" height="900pt"
 viewBox="0.00 0.00 289.00 900.00" xmlns="http://www.w3.org/2000/svg" xmlns:xlink="http://www.w3.org/1999/xlink">
<g id="graph0" class="graph" transform="scale(1 1) rotate(0) translate(4 896)">
<title>G</title>
<polygon fill="#ffffff" stroke="transparent" points="-4,4 -4,-896 285,-896 285,4 -4,4"/>
<!-- A0 -->
<g id="node1" class="node">
<title>A0</title>
<polygon fill="#fff8dc" stroke="#000000" points="116.6964,-36 8.3036,-36 8.3036,0 122.6964,0 122.6964,-30 116.6964,-36"/>
<polyline fill="none" stroke="#000000" points="116.6964,-36 116.6964,-30 "/>
<polyline fill="none" stroke="#000000" points="122.6964,-30 116.6964,-30 "/>
<text text-anchor="middle" x="65.5" y="-21" font-family="Helvetica,sans-Serif" font-size="10.00" fill="#000000">You can stick notes</text>
<text text-anchor="middle" x="65.5" y="-9" font-family="Helvetica,sans-Serif" font-size="10.00" fill="#000000">on diagrams too!</text>
</g>
<!-- A1 -->
<g id="node2" class="node">
<title>A1</title>
<polygon fill="none" stroke="#000000" points="12.5,-178 12.5,-210 118.5,-210 118.5,-178 12.5,-178"/>
<text text-anchor="start" x="53.552" y="-191" font-family="Helvetica,sans-Serif" font-size="10.00" fill="#000000">Node</text>
<polygon fill="none" stroke="#000000" points="12.5,-134 12.5,-178 118.5,-178 118.5,-134 12.5,-134"/>
<text text-anchor="start" x="23.8185" y="-159" font-family="Helvetica,sans-Serif" font-size="10.00" fill="#000000">&#45;father_node:Node</text>
<text text-anchor="start" x="30.492" y="-147" font-family="Helvetica,sans-Serif" font-size="10.00" fill="#000000">&#45;child_node:List</text>
<polygon fill="none" stroke="#000000" points="12.5,-54 12.5,-134 118.5,-134 118.5,-54 12.5,-54"/>
<text text-anchor="start" x="27.2975" y="-115" font-family="Helvetica,sans-Serif" font-size="10.00" fill="#000000">+add_child():void</text>
<text text-anchor="start" x="22.019" y="-103" font-family="Helvetica,sans-Serif" font-size="10.00" fill="#000000">+delete_child():void</text>
<text text-anchor="start" x="26.463" y="-91" font-family="Helvetica,sans-Serif" font-size="10.00" fill="#000000">+set_father():void</text>
<text text-anchor="start" x="26.1835" y="-79" font-family="Helvetica,sans-Serif" font-size="10.00" fill="#000000">+get_father():void</text>
<text text-anchor="start" x="31.607" y="-67" font-family="Helvetica,sans-Serif" font-size="10.00" fill="#000000">get_child():void</text>
</g>
<!-- A2 -->
<g id="node3" class="node">
<title>A2</title>
<polygon fill="none" stroke="#000000" points="181,-160 181,-192 281,-192 281,-160 181,-160"/>
<text text-anchor="start" x="210.999" y="-173" font-family="Helvetica,sans-Serif" font-size="10.00" fill="#000000">FileNode</text>
<polygon fill="none" stroke="#000000" points="181,-116 181,-160 281,-160 281,-116 181,-116"/>
<text text-anchor="start" x="205.161" y="-141" font-family="Helvetica,sans-Serif" font-size="10.00" fill="#000000">&#45;path:String</text>
<text text-anchor="start" x="213.219" y="-129" font-family="Helvetica,sans-Serif" font-size="10.00" fill="#000000">&#45;tag:List</text>
<polygon fill="none" stroke="#000000" points="181,-72 181,-116 281,-116 281,-72 181,-72"/>
<text text-anchor="start" x="190.849" y="-97" font-family="Helvetica,sans-Serif" font-size="10.00" fill="#000000">+get_path():String</text>
<text text-anchor="start" x="198.907" y="-85" font-family="Helvetica,sans-Serif" font-size="10.00" fill="#000000">+get_tag():List</text>
</g>
<!-- A1&#45;&gt;A2 -->
<g id="edge1" class="edge">
<title>A1&#45;&gt;A2</title>
<path fill="none" stroke="#000000" d="M128.7771,-132C146.0396,-132 164.5008,-132 180.9182,-132"/>
<polygon fill="none" stroke="#000000" points="128.7763,-128.5001 118.7762,-132 128.7762,-135.5001 128.7763,-128.5001"/>
</g>
<!-- A3 -->
<g id="node4" class="node">
<title>A3</title>
<polygon fill="none" stroke="#000000" points=".5,-316 .5,-348 131.5,-348 131.5,-316 .5,-316"/>
<text text-anchor="start" x="47.669" y="-329" font-family="Helvetica,sans-Serif" font-size="10.00" fill="#000000">FileTree</text>
<polygon fill="none" stroke="#000000" points=".5,-260 .5,-316 131.5,-316 131.5,-260 .5,-260"/>
<text text-anchor="start" x="20.4345" y="-297" font-family="Helvetica,sans-Serif" font-size="10.00" fill="#000000">&#45;root_node:FileNode</text>
<text text-anchor="start" x="28.7685" y="-285" font-family="Helvetica,sans-Serif" font-size="10.00" fill="#000000">&#45;root_path:String</text>
<text text-anchor="start" x="12.66" y="-273" font-family="Helvetica,sans-Serif" font-size="10.00" fill="#000000">&#45;file_system_type:String</text>
<polygon fill="none" stroke="#000000" points=".5,-228 .5,-260 131.5,-260 131.5,-228 .5,-228"/>
<text text-anchor="start" x="10.013" y="-241" font-family="Helvetica,sans-Serif" font-size="10.00" fill="#000000">+generate_file_tree():uint</text>
</g>
<!-- A4 -->
<g id="node5" class="node">
<title>A4</title>
<polygon fill="none" stroke="#000000" points="9.5,-418 9.5,-450 122.5,-450 122.5,-418 9.5,-418"/>
<text text-anchor="start" x="40.1705" y="-431" font-family="Helvetica,sans-Serif" font-size="10.00" fill="#000000">ErrorHelper</text>
<polygon fill="none" stroke="#000000" points="9.5,-398 9.5,-418 122.5,-418 122.5,-398 9.5,-398"/>
<polygon fill="none" stroke="#000000" points="9.5,-366 9.5,-398 122.5,-398 122.5,-366 9.5,-366"/>
<text text-anchor="start" x="19.19" y="-379" font-family="Helvetica,sans-Serif" font-size="10.00" fill="#000000">+error_handler():void</text>
</g>
<!-- A5 -->
<g id="node6" class="node">
<title>A5</title>
<polygon fill="none" stroke="#000000" points="4.5,-536 4.5,-568 127.5,-568 127.5,-536 4.5,-536"/>
<text text-anchor="start" x="42.384" y="-549" font-family="Helvetica,sans-Serif" font-size="10.00" fill="#000000">ConstData</text>
<polygon fill="none" stroke="#000000" points="4.5,-468 4.5,-536 127.5,-536 127.5,-468 4.5,-468"/>
<text text-anchor="start" x="14.0455" y="-517" font-family="Helvetica,sans-Serif" font-size="10.00" fill="#000000">&#45;error_type:Dict{Status}</text>
<text text-anchor="start" x="25.154" y="-505" font-family="Helvetica,sans-Serif" font-size="10.00" fill="#000000">&#45;button_text:String</text>
<text text-anchor="start" x="39.885" y="-493" font-family="Helvetica,sans-Serif" font-size="10.00" fill="#000000">&#45;Status:DIct</text>
<text text-anchor="start" x="61.8315" y="-481" font-family="Helvetica,sans-Serif" font-size="10.00" fill="#000000">...</text>
</g>
<!-- A6 -->
<g id="node7" class="node">
<title>A6</title>
<polygon fill="none" stroke="#000000" points="3.5,-722 3.5,-754 128.5,-754 128.5,-722 3.5,-722"/>
<text text-anchor="start" x="36.831" y="-735" font-family="Helvetica,sans-Serif" font-size="10.00" fill="#000000">ConfigHelper</text>
<polygon fill="none" stroke="#000000" points="3.5,-666 3.5,-722 128.5,-722 128.5,-666 3.5,-666"/>
<text text-anchor="start" x="27.6625" y="-703" font-family="Helvetica,sans-Serif" font-size="10.00" fill="#000000">&#45;username:String</text>
<text text-anchor="start" x="28.497" y="-691" font-family="Helvetica,sans-Serif" font-size="10.00" fill="#000000">&#45;password:String</text>
<text text-anchor="start" x="14.604" y="-679" font-family="Helvetica,sans-Serif" font-size="10.00" fill="#000000">&#45;system_root_path:Dict</text>
<polygon fill="none" stroke="#000000" points="3.5,-586 3.5,-666 128.5,-666 128.5,-586 3.5,-586"/>
<text text-anchor="start" x="27.238" y="-647" font-family="Helvetica,sans-Serif" font-size="10.00" fill="#000000">+data_load():void</text>
<text text-anchor="start" x="26.1335" y="-635" font-family="Helvetica,sans-Serif" font-size="10.00" fill="#000000">+data_write():void</text>
<text text-anchor="start" x="13.3505" y="-623" font-family="Helvetica,sans-Serif" font-size="10.00" fill="#000000">+get_username():String</text>
<text text-anchor="start" x="14.185" y="-611" font-family="Helvetica,sans-Serif" font-size="10.00" fill="#000000">+get_password():String</text>
<text text-anchor="start" x="15.576" y="-599" font-family="Helvetica,sans-Serif" font-size="10.00" fill="#000000">+get_root_path():Dict()</text>
</g>
<!-- A7 -->
<g id="node8" class="node">
<title>A7</title>
<polygon fill="none" stroke="#000000" points="18.5,-860 18.5,-892 113.5,-892 113.5,-860 18.5,-860"/>
<text text-anchor="start" x="47.668" y="-873" font-family="Helvetica,sans-Serif" font-size="10.00" fill="#000000">Network</text>
<polygon fill="none" stroke="#000000" points="18.5,-792 18.5,-860 113.5,-860 113.5,-792 18.5,-792"/>
<text text-anchor="start" x="29.327" y="-841" font-family="Helvetica,sans-Serif" font-size="10.00" fill="#000000">&#45;usename:String</text>
<text text-anchor="start" x="28.497" y="-829" font-family="Helvetica,sans-Serif" font-size="10.00" fill="#000000">&#45;password:String</text>
<text text-anchor="start" x="44.3355" y="-817" font-family="Helvetica,sans-Serif" font-size="10.00" fill="#000000">&#45;url:String</text>
<text text-anchor="start" x="30.9935" y="-805" font-family="Helvetica,sans-Serif" font-size="10.00" fill="#000000">&#45;file_path:String</text>
<polygon fill="none" stroke="#000000" points="18.5,-772 18.5,-792 113.5,-792 113.5,-772 18.5,-772"/>
</g>
</g>
</svg>
