<?xml version="1.0" encoding="UTF-8" standalone="no"?>
<!DOCTYPE svg PUBLIC "-//W3C//DTD SVG 1.1//EN"
 "http://www.w3.org/Graphics/SVG/1.1/DTD/svg11.dtd">
<!-- Generated by graphviz version 2.40.1 (20161225.0304)
 -->
<!-- Title: G Pages: 1 -->
<svg width="439pt" height="644pt"
 viewBox="0.00 0.00 439.36 644.00" xmlns="http://www.w3.org/2000/svg" xmlns:xlink="http://www.w3.org/1999/xlink">
<g id="graph0" class="graph" transform="scale(1 1) rotate(0) translate(4 640)">
<title>G</title>
<polygon fill="#ffffff" stroke="transparent" points="-4,4 -4,-640 435.359,-640 435.359,4 -4,4"/>
<!-- A0 -->
<g id="node1" class="node">
<title>A0</title>
<polygon fill="#f5f5dc" stroke="#000000" points="139.6926,-636 .1024,-636 .1024,-600 145.6926,-600 145.6926,-630 139.6926,-636"/>
<polyline fill="none" stroke="#000000" points="139.6926,-636 139.6926,-630 "/>
<polyline fill="none" stroke="#000000" points="145.6926,-630 139.6926,-630 "/>
<text text-anchor="middle" x="72.8975" y="-615" font-family="Helvetica,sans-Serif" font-size="10.00" fill="#000000">figure 1.2: Activity diagram</text>
</g>
<!-- A1 -->
<g id="node2" class="node">
<title>A1</title>
<ellipse fill="none" stroke="#000000" cx="174.8975" cy="-618" rx="11" ry="11"/>
</g>
<!-- A2 -->
<g id="node3" class="node">
<title>A2</title>
<path fill="#87cefa" stroke="#000000" d="M190.0735,-563C190.0735,-563 159.7215,-563 159.7215,-563 153.7215,-563 147.7215,-557 147.7215,-551 147.7215,-551 147.7215,-539 147.7215,-539 147.7215,-533 153.7215,-527 159.7215,-527 159.7215,-527 190.0735,-527 190.0735,-527 196.0735,-527 202.0735,-533 202.0735,-539 202.0735,-539 202.0735,-551 202.0735,-551 202.0735,-557 196.0735,-563 190.0735,-563"/>
<text text-anchor="middle" x="174.8975" y="-542" font-family="Helvetica,sans-Serif" font-size="10.00" fill="#000000">登录</text>
</g>
<!-- A1&#45;&gt;A2 -->
<g id="edge1" class="edge">
<title>A1&#45;&gt;A2</title>
<path fill="none" stroke="#000000" d="M174.8975,-606.9129C174.8975,-597.9959 174.8975,-585.0618 174.8975,-573.3187"/>
<polygon fill="#000000" stroke="#000000" points="174.8975,-563.0186 179.3976,-573.0186 174.8975,-568.0186 174.8976,-573.0186 174.8976,-573.0186 174.8976,-573.0186 174.8975,-568.0186 170.3976,-573.0186 174.8975,-563.0186 174.8975,-563.0186"/>
</g>
<!-- A3 -->
<g id="node4" class="node">
<title>A3</title>
<polygon fill="none" stroke="#000000" points="174.8975,-490 156.8975,-472 174.8975,-454 192.8975,-472 174.8975,-490"/>
</g>
<!-- A2&#45;&gt;A3 -->
<g id="edge2" class="edge">
<title>A2&#45;&gt;A3</title>
<path fill="none" stroke="#000000" d="M174.8975,-526.9551C174.8975,-518.8828 174.8975,-509.1764 174.8975,-500.1817"/>
<polygon fill="#000000" stroke="#000000" points="174.8975,-490.0904 179.3976,-500.0903 174.8975,-495.0904 174.8976,-500.0904 174.8976,-500.0904 174.8976,-500.0904 174.8975,-495.0904 170.3976,-500.0904 174.8975,-490.0904 174.8975,-490.0904"/>
</g>
<!-- A4 -->
<g id="node5" class="node">
<title>A4</title>
<path fill="#ffe4b5" stroke="#000000" d="M228.1799,-260C228.1799,-260 159.6151,-260 159.6151,-260 153.6151,-260 147.6151,-254 147.6151,-248 147.6151,-248 147.6151,-236 147.6151,-236 147.6151,-230 153.6151,-224 159.6151,-224 159.6151,-224 228.1799,-224 228.1799,-224 234.1799,-224 240.1799,-230 240.1799,-236 240.1799,-236 240.1799,-248 240.1799,-248 240.1799,-254 234.1799,-260 228.1799,-260"/>
<text text-anchor="middle" x="193.8975" y="-239" font-family="Helvetica,sans-Serif" font-size="10.00" fill="#000000">本地文件系统</text>
</g>
<!-- A3&#45;&gt;A4 -->
<g id="edge3" class="edge">
<title>A3&#45;&gt;A4</title>
<path fill="none" stroke="#000000" d="M163.3587,-465.3826C135.1143,-448.2549 66.2416,-400.3516 86.4735,-351 100.8703,-315.8819 132.6495,-286.0162 157.929,-266.4761"/>
<polygon fill="#000000" stroke="#000000" points="166.2184,-260.2527 160.9231,-269.8554 162.2199,-263.2547 158.2213,-266.2567 158.2213,-266.2567 158.2213,-266.2567 162.2199,-263.2547 155.5195,-262.658 166.2184,-260.2527 166.2184,-260.2527"/>
<text text-anchor="middle" x="133.6095" y="-354" font-family="Helvetica,sans-Serif" font-size="10.00" fill="#000000">[选择文件系统来源]</text>
</g>
<!-- A6 -->
<g id="node7" class="node">
<title>A6</title>
<path fill="#ffe4b5" stroke="#000000" d="M223.6348,-417C223.6348,-417 126.1602,-417 126.1602,-417 120.1602,-417 114.1602,-411 114.1602,-405 114.1602,-405 114.1602,-393 114.1602,-393 114.1602,-387 120.1602,-381 126.1602,-381 126.1602,-381 223.6348,-381 223.6348,-381 229.6348,-381 235.6348,-387 235.6348,-393 235.6348,-393 235.6348,-405 235.6348,-405 235.6348,-411 229.6348,-417 223.6348,-417"/>
<text text-anchor="middle" x="174.8975" y="-396" font-family="Helvetica,sans-Serif" font-size="10.00" fill="#000000">网络学堂文件系统</text>
</g>
<!-- A3&#45;&gt;A6 -->
<g id="edge5" class="edge">
<title>A3&#45;&gt;A6</title>
<path fill="none" stroke="#000000" d="M174.8975,-453.9551C174.8975,-445.8828 174.8975,-436.1764 174.8975,-427.1817"/>
<polygon fill="#000000" stroke="#000000" points="174.8975,-417.0904 179.3976,-427.0903 174.8975,-422.0904 174.8976,-427.0904 174.8976,-427.0904 174.8976,-427.0904 174.8975,-422.0904 170.3976,-427.0904 174.8975,-417.0904 174.8975,-417.0904"/>
</g>
<!-- A8 -->
<g id="node9" class="node">
<title>A8</title>
<path fill="#ffe4b5" stroke="#000000" d="M338.4996,-417C338.4996,-417 265.2954,-417 265.2954,-417 259.2954,-417 253.2954,-411 253.2954,-405 253.2954,-405 253.2954,-393 253.2954,-393 253.2954,-387 259.2954,-381 265.2954,-381 265.2954,-381 338.4996,-381 338.4996,-381 344.4996,-381 350.4996,-387 350.4996,-393 350.4996,-393 350.4996,-405 350.4996,-405 350.4996,-411 344.4996,-417 338.4996,-417"/>
<text text-anchor="middle" x="301.8975" y="-396" font-family="Helvetica,sans-Serif" font-size="10.00" fill="#000000">其他文件系统</text>
</g>
<!-- A3&#45;&gt;A8 -->
<g id="edge8" class="edge">
<title>A3&#45;&gt;A8</title>
<path fill="none" stroke="#000000" d="M186.6177,-465.2632C203.4811,-455.57 235.4196,-437.2117 261.41,-422.2723"/>
<polygon fill="#000000" stroke="#000000" points="270.3207,-417.1505 263.8934,-426.0354 265.9857,-419.6422 261.6508,-422.1339 261.6508,-422.1339 261.6508,-422.1339 265.9857,-419.6422 259.4083,-418.2325 270.3207,-417.1505 270.3207,-417.1505"/>
</g>
<!-- A5 -->
<g id="node6" class="node">
<title>A5</title>
<polygon fill="#d3d3d3" stroke="#000000" stroke-width="4" points="175.8975,-182.5 175.8975,-186.5 211.8975,-186.5 211.8975,-182.5 175.8975,-182.5"/>
<text text-anchor="middle" x="193.5364" y="-184.2" font-family="Helvetica,sans-Serif" font-size="1.00" fill="#000000"> </text>
</g>
<!-- A4&#45;&gt;A5 -->
<g id="edge4" class="edge">
<title>A4&#45;&gt;A5:n</title>
<path fill="none" stroke="#000000" d="M193.8975,-223.5C193.8975,-215.5749 193.8975,-205.9869 193.8975,-196.5678"/>
<polygon fill="#000000" stroke="#000000" points="193.8975,-186.5 198.3976,-196.5 193.8975,-191.5 193.8976,-196.5 193.8976,-196.5 193.8976,-196.5 193.8975,-191.5 189.3976,-196.5 193.8975,-186.5 193.8975,-186.5"/>
</g>
<!-- A9 -->
<g id="node10" class="node">
<title>A9</title>
<path fill="#87cefa" stroke="#000000" d="M131.8571,-145C131.8571,-145 87.9379,-145 87.9379,-145 81.9379,-145 75.9379,-139 75.9379,-133 75.9379,-133 75.9379,-121 75.9379,-121 75.9379,-115 81.9379,-109 87.9379,-109 87.9379,-109 131.8571,-109 131.8571,-109 137.8571,-109 143.8571,-115 143.8571,-121 143.8571,-121 143.8571,-133 143.8571,-133 143.8571,-139 137.8571,-145 131.8571,-145"/>
<text text-anchor="middle" x="109.8975" y="-124" font-family="Helvetica,sans-Serif" font-size="10.00" fill="#000000">增删查改</text>
</g>
<!-- A5&#45;&gt;A9 -->
<g id="edge11" class="edge">
<title>A5&#45;&gt;A9</title>
<path fill="none" stroke="#000000" d="M190.7072,-182.3161C183.1356,-177.1332 163.3586,-163.5954 145.2659,-151.2105"/>
<polygon fill="#000000" stroke="#000000" points="136.5802,-145.265 147.374,-147.2002 140.7062,-148.0893 144.8321,-150.9136 144.8321,-150.9136 144.8321,-150.9136 140.7062,-148.0893 142.2902,-154.6269 136.5802,-145.265 136.5802,-145.265"/>
</g>
<!-- A11 -->
<g id="node12" class="node">
<title>A11</title>
<path fill="#87cefa" stroke="#000000" d="M214.7997,-145C214.7997,-145 172.9953,-145 172.9953,-145 166.9953,-145 160.9953,-139 160.9953,-133 160.9953,-133 160.9953,-121 160.9953,-121 160.9953,-115 166.9953,-109 172.9953,-109 172.9953,-109 214.7997,-109 214.7997,-109 220.7997,-109 226.7997,-115 226.7997,-121 226.7997,-121 226.7997,-133 226.7997,-133 226.7997,-139 220.7997,-145 214.7997,-145"/>
<text text-anchor="middle" x="193.8975" y="-124" font-family="Helvetica,sans-Serif" font-size="10.00" fill="#000000">添加Tag</text>
</g>
<!-- A5&#45;&gt;A11 -->
<g id="edge13" class="edge">
<title>A5&#45;&gt;A11</title>
<path fill="none" stroke="#000000" d="M193.8975,-182.0293C193.8975,-177.2727 193.8975,-166.3488 193.8975,-155.4769"/>
<polygon fill="#000000" stroke="#000000" points="193.8975,-145.2724 198.3976,-155.2723 193.8975,-150.2724 193.8976,-155.2724 193.8976,-155.2724 193.8976,-155.2724 193.8975,-150.2724 189.3976,-155.2724 193.8975,-145.2724 193.8975,-145.2724"/>
</g>
<!-- A12 -->
<g id="node13" class="node">
<title>A12</title>
<path fill="#87cefa" stroke="#000000" d="M309.2473,-145C309.2473,-145 256.5477,-145 256.5477,-145 250.5477,-145 244.5477,-139 244.5477,-133 244.5477,-133 244.5477,-121 244.5477,-121 244.5477,-115 250.5477,-109 256.5477,-109 256.5477,-109 309.2473,-109 309.2473,-109 315.2473,-109 321.2473,-115 321.2473,-121 321.2473,-121 321.2473,-133 321.2473,-133 321.2473,-139 315.2473,-145 309.2473,-145"/>
<text text-anchor="middle" x="282.8975" y="-124" font-family="Helvetica,sans-Serif" font-size="10.00" fill="#000000">备份共享</text>
</g>
<!-- A5&#45;&gt;A12 -->
<g id="edge15" class="edge">
<title>A5&#45;&gt;A12</title>
<path fill="none" stroke="#000000" d="M197.2777,-182.3161C205.4094,-177.0625 226.8281,-163.2246 246.207,-150.7045"/>
<polygon fill="#000000" stroke="#000000" points="254.6265,-145.265 248.669,-154.4714 250.4268,-147.9783 246.227,-150.6916 246.227,-150.6916 246.227,-150.6916 250.4268,-147.9783 243.785,-146.9119 254.6265,-145.265 254.6265,-145.265"/>
</g>
<!-- A7 -->
<g id="node8" class="node">
<title>A7</title>
<path fill="#87cefa" stroke="#000000" d="M216.9455,-333C216.9455,-333 170.8495,-333 170.8495,-333 164.8495,-333 158.8495,-327 158.8495,-321 158.8495,-321 158.8495,-309 158.8495,-309 158.8495,-303 164.8495,-297 170.8495,-297 170.8495,-297 216.9455,-297 216.9455,-297 222.9455,-297 228.9455,-303 228.9455,-309 228.9455,-309 228.9455,-321 228.9455,-321 228.9455,-327 222.9455,-333 216.9455,-333"/>
<text text-anchor="middle" x="193.8975" y="-312" font-family="Helvetica,sans-Serif" font-size="10.00" fill="#000000">文件同步</text>
</g>
<!-- A6&#45;&gt;A7 -->
<g id="edge6" class="edge">
<title>A6&#45;&gt;A7</title>
<path fill="none" stroke="#000000" d="M179.0202,-380.7733C181.51,-369.7657 184.7346,-355.5098 187.5448,-343.0854"/>
<polygon fill="#000000" stroke="#000000" points="189.7828,-333.1912 191.9657,-343.9376 188.6797,-338.068 187.5766,-342.9448 187.5766,-342.9448 187.5766,-342.9448 188.6797,-338.068 183.1875,-341.952 189.7828,-333.1912 189.7828,-333.1912"/>
</g>
<!-- A7&#45;&gt;A4 -->
<g id="edge7" class="edge">
<title>A7&#45;&gt;A4</title>
<path fill="none" stroke="#000000" d="M187.9818,-296.9551C187.1833,-288.8828 186.958,-279.1764 187.3058,-270.1817"/>
<polygon fill="#000000" stroke="#000000" points="187.9773,-260.0904 191.8033,-270.3671 187.6453,-265.0793 187.3132,-270.0683 187.3132,-270.0683 187.3132,-270.0683 187.6453,-265.0793 182.8232,-269.7695 187.9773,-260.0904 187.9773,-260.0904"/>
</g>
<!-- A7&#45;&gt;A4 -->
<g id="edge10" class="edge">
<title>A7&#45;&gt;A4</title>
<path fill="none" stroke="#000000" d="M199.8132,-296.9551C200.6117,-288.8828 200.837,-279.1764 200.4892,-270.1817"/>
<polygon fill="#000000" stroke="#000000" points="199.8177,-260.0904 204.9718,-269.7695 200.1497,-265.0793 200.4818,-270.0683 200.4818,-270.0683 200.4818,-270.0683 200.1497,-265.0793 195.9917,-270.3671 199.8177,-260.0904 199.8177,-260.0904"/>
</g>
<!-- A8&#45;&gt;A7 -->
<g id="edge9" class="edge">
<title>A8&#45;&gt;A7</title>
<path fill="none" stroke="#000000" d="M278.7288,-380.9799C263.1756,-368.883 242.4907,-352.7947 225.4403,-339.5333"/>
<polygon fill="#000000" stroke="#000000" points="217.4005,-333.2801 228.0568,-335.8675 221.3473,-336.3499 225.2941,-339.4196 225.2941,-339.4196 225.2941,-339.4196 221.3473,-336.3499 222.5313,-342.9717 217.4005,-333.2801 217.4005,-333.2801"/>
</g>
<!-- A10 -->
<g id="node11" class="node">
<title>A10</title>
<polygon fill="#d3d3d3" stroke="#000000" stroke-width="4" points="176.8975,-67.5 176.8975,-71.5 212.8975,-71.5 212.8975,-67.5 176.8975,-67.5"/>
<text text-anchor="middle" x="182.5364" y="-69.2" font-family="Helvetica,sans-Serif" font-size="1.00" fill="#000000"> </text>
<polyline fill="none" stroke="#000000" stroke-width="4" points="188.1754,-67.5 188.1754,-71.5 "/>
<text text-anchor="middle" x="194.3144" y="-69.2" font-family="Helvetica,sans-Serif" font-size="1.00" fill="#000000"> </text>
<polyline fill="none" stroke="#000000" stroke-width="4" points="200.4533,-67.5 200.4533,-71.5 "/>
<text text-anchor="middle" x="206.5922" y="-69.2" font-family="Helvetica,sans-Serif" font-size="1.00" fill="#000000"> </text>
</g>
<!-- A9&#45;&gt;A10 -->
<g id="edge12" class="edge">
<title>A9&#45;&gt;A10:n</title>
<path fill="none" stroke="#000000" d="M142.9801,-108.9844C157.1644,-100.4131 172.0433,-90.0538 178.9468,-80.8676"/>
<polygon fill="#000000" stroke="#000000" points="182.8975,-71.5 183.1578,-82.4628 180.9545,-76.107 179.0115,-80.7141 179.0115,-80.7141 179.0115,-80.7141 180.9545,-76.107 174.8651,-78.9654 182.8975,-71.5 182.8975,-71.5"/>
</g>
<!-- A13 -->
<g id="node14" class="node">
<title>A13</title>
<ellipse fill="none" stroke="#000000" cx="194.8975" cy="-15" rx="11" ry="11"/>
<ellipse fill="none" stroke="#000000" cx="194.8975" cy="-15" rx="15" ry="15"/>
</g>
<!-- A10&#45;&gt;A13 -->
<g id="edge17" class="edge">
<title>A10&#45;&gt;A13</title>
<path fill="none" stroke="#000000" d="M194.8975,-67.1582C194.8975,-62.3718 194.8975,-50.9971 194.8975,-40.0875"/>
<polygon fill="#000000" stroke="#000000" points="194.8975,-30.0005 199.3976,-40.0005 194.8975,-35.0005 194.8976,-40.0005 194.8976,-40.0005 194.8976,-40.0005 194.8975,-35.0005 190.3976,-40.0006 194.8975,-30.0005 194.8975,-30.0005"/>
</g>
<!-- A11&#45;&gt;A10 -->
<g id="edge14" class="edge">
<title>A11&#45;&gt;A10:n</title>
<path fill="none" stroke="#000000" d="M193.8975,-108.5C193.8975,-100.5749 193.8975,-90.9869 193.8975,-81.5678"/>
<polygon fill="#000000" stroke="#000000" points="193.8975,-71.5 198.3976,-81.5 193.8975,-76.5 193.8976,-81.5 193.8976,-81.5 193.8976,-81.5 193.8975,-76.5 189.3976,-81.5 193.8975,-71.5 193.8975,-71.5"/>
</g>
<!-- A12&#45;&gt;A10 -->
<g id="edge16" class="edge">
<title>A12&#45;&gt;A10:n</title>
<path fill="none" stroke="#000000" d="M248.0116,-108.9154C233.3394,-100.4288 218.0439,-90.1761 210.9534,-80.9604"/>
<polygon fill="#000000" stroke="#000000" points="206.8975,-71.5 214.9738,-78.9178 208.8677,-76.0955 210.8379,-80.691 210.8379,-80.691 210.8379,-80.691 208.8677,-76.0955 206.702,-82.4641 206.8975,-71.5 206.8975,-71.5"/>
</g>
<!-- A14 -->
<g id="node15" class="node">
<title>A14</title>
<polygon fill="#87cefa" stroke="#000000" points="299.9805,-636 203.8145,-636 203.8145,-600 305.9805,-600 305.9805,-630 299.9805,-636"/>
<polyline fill="none" stroke="#000000" points="299.9805,-636 299.9805,-630 "/>
<polyline fill="none" stroke="#000000" points="305.9805,-630 299.9805,-630 "/>
<text text-anchor="middle" x="254.8975" y="-615" font-family="Helvetica,sans-Serif" font-size="10.00" fill="#000000">用户操作颜色</text>
</g>
<!-- A15 -->
<g id="node16" class="node">
<title>A15</title>
<polygon fill="#ffe4b5" stroke="#000000" points="425.3205,-636 324.4745,-636 324.4745,-600 431.3205,-600 431.3205,-630 425.3205,-636"/>
<polyline fill="none" stroke="#000000" points="425.3205,-636 425.3205,-630 "/>
<polyline fill="none" stroke="#000000" points="431.3205,-630 425.3205,-630 "/>
<text text-anchor="middle" x="377.8975" y="-615" font-family="Helvetica,sans-Serif" font-size="10.00" fill="#000000">系统操作颜色</text>
</g>
</g>
</svg>
