<?xml version="1.0" encoding="UTF-8" standalone="no"?>
<!DOCTYPE svg PUBLIC "-//W3C//DTD SVG 1.1//EN"
 "http://www.w3.org/Graphics/SVG/1.1/DTD/svg11.dtd">
<!-- Generated by graphviz version 2.40.1 (20161225.0304)
 -->
<!-- Title: G Pages: 1 -->
<svg width="379pt" height="1931pt"
 viewBox="0.00 0.00 379.00 1931.00" xmlns="http://www.w3.org/2000/svg" xmlns:xlink="http://www.w3.org/1999/xlink">
<g id="graph0" class="graph" transform="scale(1 1) rotate(0) translate(4 1927)">
<title>G</title>
<polygon fill="#ffffff" stroke="transparent" points="-4,4 -4,-1927 375,-1927 375,4 -4,4"/>
<!-- A0 -->
<g id="node1" class="node">
<title>A0</title>
<polygon fill="none" stroke="#000000" points="25.5,-68 25.5,-100 148.5,-100 148.5,-68 25.5,-68"/>
<text text-anchor="start" x="63.384" y="-81" font-family="Helvetica,sans-Serif" font-size="10.00" fill="#000000">ConstData</text>
<polygon fill="none" stroke="#000000" points="25.5,0 25.5,-68 148.5,-68 148.5,0 25.5,0"/>
<text text-anchor="start" x="35.0455" y="-49" font-family="Helvetica,sans-Serif" font-size="10.00" fill="#000000">&#45;error_type:Dict{Status}</text>
<text text-anchor="start" x="46.154" y="-37" font-family="Helvetica,sans-Serif" font-size="10.00" fill="#000000">&#45;button_text:String</text>
<text text-anchor="start" x="60.885" y="-25" font-family="Helvetica,sans-Serif" font-size="10.00" fill="#000000">&#45;Status:DIct</text>
<text text-anchor="start" x="82.8315" y="-13" font-family="Helvetica,sans-Serif" font-size="10.00" fill="#000000">...</text>
</g>
<!-- A1 -->
<g id="node2" class="node">
<title>A1</title>
<polygon fill="none" stroke="#000000" points="24.5,-254 24.5,-286 149.5,-286 149.5,-254 24.5,-254"/>
<text text-anchor="start" x="57.831" y="-267" font-family="Helvetica,sans-Serif" font-size="10.00" fill="#000000">ConfigHelper</text>
<polygon fill="none" stroke="#000000" points="24.5,-198 24.5,-254 149.5,-254 149.5,-198 24.5,-198"/>
<text text-anchor="start" x="48.6625" y="-235" font-family="Helvetica,sans-Serif" font-size="10.00" fill="#000000">&#45;username:String</text>
<text text-anchor="start" x="49.497" y="-223" font-family="Helvetica,sans-Serif" font-size="10.00" fill="#000000">&#45;password:String</text>
<text text-anchor="start" x="35.604" y="-211" font-family="Helvetica,sans-Serif" font-size="10.00" fill="#000000">&#45;system_root_path:Dict</text>
<polygon fill="none" stroke="#000000" points="24.5,-118 24.5,-198 149.5,-198 149.5,-118 24.5,-118"/>
<text text-anchor="start" x="48.238" y="-179" font-family="Helvetica,sans-Serif" font-size="10.00" fill="#000000">+data_load():void</text>
<text text-anchor="start" x="47.1335" y="-167" font-family="Helvetica,sans-Serif" font-size="10.00" fill="#000000">+data_write():void</text>
<text text-anchor="start" x="34.3505" y="-155" font-family="Helvetica,sans-Serif" font-size="10.00" fill="#000000">+get_username():String</text>
<text text-anchor="start" x="35.185" y="-143" font-family="Helvetica,sans-Serif" font-size="10.00" fill="#000000">+get_password():String</text>
<text text-anchor="start" x="36.576" y="-131" font-family="Helvetica,sans-Serif" font-size="10.00" fill="#000000">+get_root_path():Dict()</text>
</g>
<!-- A2 -->
<g id="node3" class="node">
<title>A2</title>
<polygon fill="none" stroke="#000000" points="15.5,-404 15.5,-436 158.5,-436 158.5,-404 15.5,-404"/>
<text text-anchor="start" x="50.8815" y="-417" font-family="Helvetica,sans-Serif" font-size="10.00" fill="#000000">DatabaseHelper</text>
<polygon fill="none" stroke="#000000" points="15.5,-360 15.5,-404 158.5,-404 158.5,-360 15.5,-360"/>
<text text-anchor="start" x="42.2635" y="-385" font-family="Helvetica,sans-Serif" font-size="10.00" fill="#000000">&#45;database_path:Dict</text>
<text text-anchor="start" x="39.764" y="-373" font-family="Helvetica,sans-Serif" font-size="10.00" fill="#000000">&#45;sql_database:sqlite3</text>
<polygon fill="none" stroke="#000000" points="15.5,-304 15.5,-360 158.5,-360 158.5,-304 15.5,-304"/>
<text text-anchor="start" x="25.462" y="-341" font-family="Helvetica,sans-Serif" font-size="10.00" fill="#000000">+node_tag_write():STATUS</text>
<text text-anchor="start" x="31.0215" y="-329" font-family="Helvetica,sans-Serif" font-size="10.00" fill="#000000">+tree_tag_write():STAUS</text>
<text text-anchor="start" x="34.909" y="-317" font-family="Helvetica,sans-Serif" font-size="10.00" fill="#000000">+tag_search():STATUS</text>
</g>
<!-- A3 -->
<g id="node4" class="node">
<title>A3</title>
<polygon fill="none" stroke="#000000" points="30.5,-506 30.5,-538 143.5,-538 143.5,-506 30.5,-506"/>
<text text-anchor="start" x="61.1705" y="-519" font-family="Helvetica,sans-Serif" font-size="10.00" fill="#000000">ErrorHelper</text>
<polygon fill="none" stroke="#000000" points="30.5,-486 30.5,-506 143.5,-506 143.5,-486 30.5,-486"/>
<polygon fill="none" stroke="#000000" points="30.5,-454 30.5,-486 143.5,-486 143.5,-454 30.5,-454"/>
<text text-anchor="start" x="40.19" y="-467" font-family="Helvetica,sans-Serif" font-size="10.00" fill="#000000">+error_handler():void</text>
</g>
<!-- A4 -->
<g id="node5" class="node">
<title>A4</title>
<polygon fill="none" stroke="#000000" points="29.5,-620 29.5,-652 143.5,-652 143.5,-620 29.5,-620"/>
<text text-anchor="start" x="63.1695" y="-633" font-family="Helvetica,sans-Serif" font-size="10.00" fill="#000000">XmlHelper</text>
<polygon fill="none" stroke="#000000" points="29.5,-600 29.5,-620 143.5,-620 143.5,-600 29.5,-600"/>
<polygon fill="none" stroke="#000000" points="29.5,-556 29.5,-600 143.5,-600 143.5,-556 29.5,-556"/>
<text text-anchor="start" x="47.4575" y="-581" font-family="Helvetica,sans-Serif" font-size="10.00" fill="#000000">+add_node():void</text>
<text text-anchor="start" x="39.409" y="-569" font-family="Helvetica,sans-Serif" font-size="10.00" fill="#000000">+xml_generate():void</text>
</g>
<!-- A5 -->
<g id="node6" class="node">
<title>A5</title>
<polygon fill="none" stroke="#000000" points="16.5,-746 16.5,-778 157.5,-778 157.5,-746 16.5,-746"/>
<text text-anchor="start" x="64.4995" y="-759" font-family="Helvetica,sans-Serif" font-size="10.00" fill="#000000">NetHelper</text>
<polygon fill="none" stroke="#000000" points="16.5,-726 16.5,-746 157.5,-746 157.5,-726 16.5,-726"/>
<polygon fill="none" stroke="#000000" points="16.5,-670 16.5,-726 157.5,-726 157.5,-670 16.5,-670"/>
<text text-anchor="start" x="26.2965" y="-707" font-family="Helvetica,sans-Serif" font-size="10.00" fill="#000000">+connection_init():STATUS</text>
<text text-anchor="start" x="59.9155" y="-695" font-family="Helvetica,sans-Serif" font-size="10.00" fill="#000000">+url_parse()</text>
<text text-anchor="start" x="47.688" y="-683" font-family="Helvetica,sans-Serif" font-size="10.00" fill="#000000">+file_downloads()</text>
</g>
<!-- A6 -->
<g id="node7" class="node">
<title>A6</title>
<polygon fill="none" stroke="#000000" points="32.5,-956 32.5,-988 140.5,-988 140.5,-956 32.5,-956"/>
<text text-anchor="start" x="74.552" y="-969" font-family="Helvetica,sans-Serif" font-size="10.00" fill="#000000">Node</text>
<polygon fill="none" stroke="#000000" points="32.5,-900 32.5,-956 140.5,-956 140.5,-900 32.5,-900"/>
<text text-anchor="start" x="42.329" y="-937" font-family="Helvetica,sans-Serif" font-size="10.00" fill="#000000">&#45;file_name：String</text>
<text text-anchor="start" x="44.8185" y="-925" font-family="Helvetica,sans-Serif" font-size="10.00" fill="#000000">&#45;father_node:Node</text>
<text text-anchor="start" x="51.492" y="-913" font-family="Helvetica,sans-Serif" font-size="10.00" fill="#000000">&#45;child_node:List</text>
<polygon fill="none" stroke="#000000" points="32.5,-796 32.5,-900 140.5,-900 140.5,-796 32.5,-796"/>
<text text-anchor="start" x="48.2975" y="-881" font-family="Helvetica,sans-Serif" font-size="10.00" fill="#000000">+add_child():void</text>
<text text-anchor="start" x="43.019" y="-869" font-family="Helvetica,sans-Serif" font-size="10.00" fill="#000000">+delete_child():void</text>
<text text-anchor="start" x="47.463" y="-857" font-family="Helvetica,sans-Serif" font-size="10.00" fill="#000000">+set_father():void</text>
<text text-anchor="start" x="47.1835" y="-845" font-family="Helvetica,sans-Serif" font-size="10.00" fill="#000000">+get_father():void</text>
<text text-anchor="start" x="49.6875" y="-833" font-family="Helvetica,sans-Serif" font-size="10.00" fill="#000000">+get_child():void</text>
<text text-anchor="start" x="42.1885" y="-821" font-family="Helvetica,sans-Serif" font-size="10.00" fill="#000000">+binary_search():int</text>
<text text-anchor="start" x="49.133" y="-809" font-family="Helvetica,sans-Serif" font-size="10.00" fill="#000000">+search_left():int</text>
</g>
<!-- A9 -->
<g id="node10" class="node">
<title>A9</title>
<polygon fill="none" stroke="#000000" points="242,-1025 242,-1057 352,-1057 352,-1025 242,-1025"/>
<text text-anchor="start" x="280.053" y="-1038" font-family="Helvetica,sans-Serif" font-size="10.00" fill="#000000">UINode</text>
<polygon fill="none" stroke="#000000" points="242,-957 242,-1025 352,-1025 352,-957 242,-957"/>
<text text-anchor="start" x="270.056" y="-1006" font-family="Helvetica,sans-Serif" font-size="10.00" fill="#000000">&#45;color:String</text>
<text text-anchor="start" x="261.9925" y="-994" font-family="Helvetica,sans-Serif" font-size="10.00" fill="#000000">&#45;x_position:float</text>
<text text-anchor="start" x="261.9925" y="-982" font-family="Helvetica,sans-Serif" font-size="10.00" fill="#000000">&#45;y_position:float</text>
<text text-anchor="start" x="272.275" y="-970" font-family="Helvetica,sans-Serif" font-size="10.00" fill="#000000">&#45;zoom:float</text>
<polygon fill="none" stroke="#000000" points="242,-889 242,-957 352,-957 352,-889 242,-889"/>
<text text-anchor="start" x="261.857" y="-938" font-family="Helvetica,sans-Serif" font-size="10.00" fill="#000000">+paint():STAUS</text>
<text text-anchor="start" x="259.912" y="-926" font-family="Helvetica,sans-Serif" font-size="10.00" fill="#000000">+set_color():void</text>
<text text-anchor="start" x="265.606" y="-914" font-family="Helvetica,sans-Serif" font-size="10.00" fill="#000000">set_text():void</text>
<text text-anchor="start" x="251.9935" y="-902" font-family="Helvetica,sans-Serif" font-size="10.00" fill="#000000">set_text_color():void</text>
</g>
<!-- A6&#45;&gt;A9 -->
<g id="edge1" class="edge">
<title>A6&#45;&gt;A9</title>
<path fill="none" stroke="#000000" d="M150.3994,-916.5884C179.5922,-927.8217 213.8317,-940.997 241.8762,-951.7885"/>
<polygon fill="none" stroke="#000000" points="151.2988,-913.1843 140.709,-912.8595 148.7849,-919.7174 151.2988,-913.1843"/>
</g>
<!-- A10 -->
<g id="node11" class="node">
<title>A10</title>
<polygon fill="none" stroke="#000000" points="228,-839 228,-871 366,-871 366,-839 228,-839"/>
<text text-anchor="start" x="276.999" y="-852" font-family="Helvetica,sans-Serif" font-size="10.00" fill="#000000">FileNode</text>
<polygon fill="none" stroke="#000000" points="228,-795 228,-839 366,-839 366,-795 228,-795"/>
<text text-anchor="start" x="270.331" y="-808" font-family="Helvetica,sans-Serif" font-size="10.00" fill="#000000">&#45;tag_list:List</text>
<polygon fill="none" stroke="#000000" points="228,-751 228,-795 366,-795 366,-751 228,-751"/>
<text text-anchor="start" x="237.958" y="-776" font-family="Helvetica,sans-Serif" font-size="10.00" fill="#000000">+get_relative_path():String</text>
<text text-anchor="start" x="264.907" y="-764" font-family="Helvetica,sans-Serif" font-size="10.00" fill="#000000">+get_tag():List</text>
</g>
<!-- A6&#45;&gt;A10 -->
<g id="edge2" class="edge">
<title>A6&#45;&gt;A10</title>
<path fill="none" stroke="#000000" d="M150.2651,-867.4633C174.775,-858.0319 202.8583,-847.2256 227.8512,-837.6083"/>
<polygon fill="none" stroke="#000000" points="148.7849,-864.2826 140.709,-871.1405 151.2988,-870.8157 148.7849,-864.2826"/>
</g>
<!-- A7 -->
<g id="node8" class="node">
<title>A7</title>
<polygon fill="none" stroke="#000000" points="17.5,-1222 17.5,-1254 156.5,-1254 156.5,-1222 17.5,-1222"/>
<text text-anchor="start" x="76.722" y="-1235" font-family="Helvetica,sans-Serif" font-size="10.00" fill="#000000">Tree</text>
<polygon fill="none" stroke="#000000" points="17.5,-1190 17.5,-1222 156.5,-1222 156.5,-1190 17.5,-1190"/>
<text text-anchor="start" x="49.4875" y="-1203" font-family="Helvetica,sans-Serif" font-size="10.00" fill="#000000">&#45;root_node:Node</text>
<polygon fill="none" stroke="#000000" points="17.5,-1146 17.5,-1190 156.5,-1190 156.5,-1146 17.5,-1146"/>
<text text-anchor="start" x="27.1165" y="-1171" font-family="Helvetica,sans-Serif" font-size="10.00" fill="#000000">+get_subtree_node():Node</text>
<text text-anchor="start" x="49.0785" y="-1159" font-family="Helvetica,sans-Serif" font-size="10.00" fill="#000000">+print_tree():void</text>
</g>
<!-- A11 -->
<g id="node12" class="node">
<title>A11</title>
<polygon fill="none" stroke="#000000" points="229,-1289 229,-1321 366,-1321 366,-1289 229,-1289"/>
<text text-anchor="start" x="279.169" y="-1302" font-family="Helvetica,sans-Serif" font-size="10.00" fill="#000000">FileTree</text>
<polygon fill="none" stroke="#000000" points="229,-1245 229,-1289 366,-1289 366,-1245 229,-1245"/>
<text text-anchor="start" x="260.2685" y="-1270" font-family="Helvetica,sans-Serif" font-size="10.00" fill="#000000">&#45;root_path:String</text>
<text text-anchor="start" x="244.16" y="-1258" font-family="Helvetica,sans-Serif" font-size="10.00" fill="#000000">&#45;file_system_type:String</text>
<polygon fill="none" stroke="#000000" points="229,-1213 229,-1245 366,-1245 366,-1213 229,-1213"/>
<text text-anchor="start" x="238.742" y="-1226" font-family="Helvetica,sans-Serif" font-size="10.00" fill="#000000">+fetch_file_tree():STATUS</text>
</g>
<!-- A7&#45;&gt;A11 -->
<g id="edge3" class="edge">
<title>A7&#45;&gt;A11</title>
<path fill="none" stroke="#000000" d="M165.672,-1225.1996C186.2643,-1231.7539 208.2779,-1238.7606 228.2815,-1245.1276"/>
<polygon fill="none" stroke="#000000" points="166.5995,-1221.8219 156.009,-1222.124 164.4764,-1228.4922 166.5995,-1221.8219"/>
</g>
<!-- A12 -->
<g id="node13" class="node">
<title>A12</title>
<polygon fill="none" stroke="#000000" points="231,-1163 231,-1195 363,-1195 363,-1163 231,-1163"/>
<text text-anchor="start" x="281.723" y="-1176" font-family="Helvetica,sans-Serif" font-size="10.00" fill="#000000">UITree</text>
<polygon fill="none" stroke="#000000" points="231,-1107 231,-1163 363,-1163 363,-1107 231,-1107"/>
<text text-anchor="start" x="254.4885" y="-1144" font-family="Helvetica,sans-Serif" font-size="10.00" fill="#000000">&#45;root_node:UINode</text>
<text text-anchor="start" x="259.7685" y="-1132" font-family="Helvetica,sans-Serif" font-size="10.00" fill="#000000">&#45;root_path:String</text>
<text text-anchor="start" x="243.66" y="-1120" font-family="Helvetica,sans-Serif" font-size="10.00" fill="#000000">&#45;file_system_type:String</text>
<polygon fill="none" stroke="#000000" points="231,-1075 231,-1107 363,-1107 363,-1075 231,-1075"/>
<text text-anchor="start" x="240.741" y="-1088" font-family="Helvetica,sans-Serif" font-size="10.00" fill="#000000">+fetch_ui_tree():STATUS</text>
</g>
<!-- A7&#45;&gt;A12 -->
<g id="edge4" class="edge">
<title>A7&#45;&gt;A12</title>
<path fill="none" stroke="#000000" d="M165.7354,-1175.533C187.1702,-1168.9142 210.1409,-1161.8211 230.779,-1155.4483"/>
<polygon fill="none" stroke="#000000" points="164.5311,-1172.2417 156.009,-1178.5364 166.5965,-1178.9301 164.5311,-1172.2417"/>
</g>
<!-- A8 -->
<g id="node9" class="node">
<title>A8</title>
<polygon fill="none" stroke="#000000" points=".5,-1437 .5,-1469 173.5,-1469 173.5,-1437 .5,-1437"/>
<text text-anchor="start" x="76.997" y="-1450" font-family="Helvetica,sans-Serif" font-size="10.00" fill="#000000">Pipe</text>
<polygon fill="none" stroke="#000000" points=".5,-1393 .5,-1437 173.5,-1437 173.5,-1393 .5,-1393"/>
<text text-anchor="start" x="21.988" y="-1418" font-family="Helvetica,sans-Serif" font-size="10.00" fill="#000000">&#45;file_system_root_path:String</text>
<text text-anchor="start" x="18.9335" y="-1406" font-family="Helvetica,sans-Serif" font-size="10.00" fill="#000000">&#45;file_system_destination:String</text>
<polygon fill="none" stroke="#000000" points=".5,-1337 .5,-1393 173.5,-1393 173.5,-1337 .5,-1337"/>
<text text-anchor="start" x="23.2475" y="-1374" font-family="Helvetica,sans-Serif" font-size="10.00" fill="#000000">+read_file_system():FileTree</text>
<text text-anchor="start" x="21.307" y="-1362" font-family="Helvetica,sans-Serif" font-size="10.00" fill="#000000">+write_file_system():STATUS</text>
<text text-anchor="start" x="10.194" y="-1350" font-family="Helvetica,sans-Serif" font-size="10.00" fill="#000000">+file_system_xml_parse():FileTree</text>
</g>
<!-- A13 -->
<g id="node14" class="node">
<title>A13</title>
<polygon fill="none" stroke="#000000" points="235,-1544 235,-1576 359,-1576 359,-1544 235,-1544"/>
<text text-anchor="start" x="278.944" y="-1557" font-family="Helvetica,sans-Serif" font-size="10.00" fill="#000000">FilePipe</text>
<polygon fill="none" stroke="#000000" points="235,-1512 235,-1544 359,-1544 359,-1512 235,-1512"/>
<text text-anchor="start" x="259.498" y="-1525" font-family="Helvetica,sans-Serif" font-size="10.00" fill="#000000">&#45;item_number:int</text>
<polygon fill="none" stroke="#000000" points="235,-1480 235,-1512 359,-1512 359,-1480 235,-1480"/>
<text text-anchor="start" x="244.7775" y="-1493" font-family="Helvetica,sans-Serif" font-size="10.00" fill="#000000">&#45;get_file_tree():FileTree</text>
</g>
<!-- A8&#45;&gt;A13 -->
<g id="edge5" class="edge">
<title>A8&#45;&gt;A13</title>
<path fill="none" stroke="#000000" d="M181.8344,-1459.6118C199.8529,-1470.3117 218.2625,-1481.2438 234.9256,-1491.1387"/>
<polygon fill="none" stroke="#000000" points="183.415,-1456.4799 173.0297,-1454.3834 179.8409,-1462.4987 183.415,-1456.4799"/>
</g>
<!-- A14 -->
<g id="node15" class="node">
<title>A14</title>
<polygon fill="none" stroke="#000000" points="223,-1430 223,-1462 371,-1462 371,-1430 223,-1430"/>
<text text-anchor="start" x="279.2185" y="-1443" font-family="Helvetica,sans-Serif" font-size="10.00" fill="#000000">NetPipe</text>
<polygon fill="none" stroke="#000000" points="223,-1374 223,-1430 371,-1430 371,-1374 223,-1374"/>
<text text-anchor="start" x="260.327" y="-1411" font-family="Helvetica,sans-Serif" font-size="10.00" fill="#000000">&#45;usename:String</text>
<text text-anchor="start" x="259.497" y="-1399" font-family="Helvetica,sans-Serif" font-size="10.00" fill="#000000">&#45;password:String</text>
<text text-anchor="start" x="247.5465" y="-1387" font-family="Helvetica,sans-Serif" font-size="10.00" fill="#000000">&#45;file_destination:String</text>
<polygon fill="none" stroke="#000000" points="223,-1342 223,-1374 371,-1374 371,-1342 223,-1342"/>
<text text-anchor="start" x="232.6915" y="-1355" font-family="Helvetica,sans-Serif" font-size="10.00" fill="#000000">+file_system_scan():FileTree</text>
</g>
<!-- A8&#45;&gt;A14 -->
<g id="edge6" class="edge">
<title>A8&#45;&gt;A14</title>
<path fill="none" stroke="#000000" d="M183.1831,-1402.5407C196.5265,-1402.4773 210.0548,-1402.413 222.9024,-1402.352"/>
<polygon fill="none" stroke="#000000" points="183.0129,-1399.0414 173.0297,-1402.5889 183.0462,-1406.0413 183.0129,-1399.0414"/>
</g>
<!-- A15 -->
<g id="node16" class="node">
<title>A15</title>
<polygon fill="none" stroke="#000000" points="21.5,-1567 21.5,-1599 152.5,-1599 152.5,-1567 21.5,-1567"/>
<text text-anchor="start" x="82.001" y="-1580" font-family="Helvetica,sans-Serif" font-size="10.00" fill="#000000">UI</text>
<polygon fill="none" stroke="#000000" points="21.5,-1487 21.5,-1567 152.5,-1567 152.5,-1487 21.5,-1487"/>
<text text-anchor="start" x="40.5945" y="-1548" font-family="Helvetica,sans-Serif" font-size="10.00" fill="#000000">&#45;top_panel:TopPanel</text>
<text text-anchor="start" x="41.1505" y="-1536" font-family="Helvetica,sans-Serif" font-size="10.00" fill="#000000">&#45;left_panel:LeftPanel</text>
<text text-anchor="start" x="34.7665" y="-1524" font-family="Helvetica,sans-Serif" font-size="10.00" fill="#000000">&#45;right_panel:RightPanel</text>
<text text-anchor="start" x="37.2655" y="-1512" font-family="Helvetica,sans-Serif" font-size="10.00" fill="#000000">&#45;tree_panel:TreePanel</text>
<text text-anchor="start" x="31.1505" y="-1500" font-family="Helvetica,sans-Serif" font-size="10.00" fill="#000000">&#45;menu_panel:MenuPanel</text>
</g>
<!-- A16 -->
<g id="node17" class="node">
<title>A16</title>
<polygon fill="none" stroke="#000000" points="121.7923,-1653 51.2077,-1653 51.2077,-1617 121.7923,-1617 121.7923,-1653"/>
<text text-anchor="middle" x="86.5" y="-1632" font-family="Helvetica,sans-Serif" font-size="10.00" fill="#000000">TopPanel</text>
</g>
<!-- A17 -->
<g id="node18" class="node">
<title>A17</title>
<polygon fill="none" stroke="#000000" points="121.7414,-1707 51.2586,-1707 51.2586,-1671 121.7414,-1671 121.7414,-1707"/>
<text text-anchor="middle" x="86.5" y="-1686" font-family="Helvetica,sans-Serif" font-size="10.00" fill="#000000">LeftPanel</text>
</g>
<!-- A18 -->
<g id="node19" class="node">
<title>A18</title>
<polygon fill="none" stroke="#000000" points="124.9001,-1761 48.0999,-1761 48.0999,-1725 124.9001,-1725 124.9001,-1761"/>
<text text-anchor="middle" x="86.5" y="-1740" font-family="Helvetica,sans-Serif" font-size="10.00" fill="#000000">RightPanel</text>
</g>
<!-- A19 -->
<g id="node20" class="node">
<title>A19</title>
<polygon fill="none" stroke="#000000" points="123.6211,-1815 49.3789,-1815 49.3789,-1779 123.6211,-1779 123.6211,-1815"/>
<text text-anchor="middle" x="86.5" y="-1794" font-family="Helvetica,sans-Serif" font-size="10.00" fill="#000000">TreePanel</text>
</g>
<!-- A20 -->
<g id="node21" class="node">
<title>A20</title>
<polygon fill="none" stroke="#000000" points="125.5722,-1869 47.4278,-1869 47.4278,-1833 125.5722,-1833 125.5722,-1869"/>
<text text-anchor="middle" x="86.5" y="-1848" font-family="Helvetica,sans-Serif" font-size="10.00" fill="#000000">MenuPanel</text>
</g>
<!-- A21 -->
<g id="node22" class="node">
<title>A21</title>
<polygon fill="#fff8dc" stroke="#000000" points="127.0501,-1923 39.9499,-1923 39.9499,-1887 133.0501,-1887 133.0501,-1917 127.0501,-1923"/>
<polyline fill="none" stroke="#000000" points="127.0501,-1923 127.0501,-1917 "/>
<polyline fill="none" stroke="#000000" points="133.0501,-1917 127.0501,-1917 "/>
<text text-anchor="middle" x="86.5" y="-1902" font-family="Helvetica,sans-Serif" font-size="10.00" fill="#000000">Class Diagram</text>
</g>
</g>
</svg>
