<?xml version="1.0" encoding="UTF-8" standalone="no"?>
<!DOCTYPE svg PUBLIC "-//W3C//DTD SVG 1.1//EN"
 "http://www.w3.org/Graphics/SVG/1.1/DTD/svg11.dtd">
<!-- Generated by graphviz version 2.40.1 (20161225.0304)
 -->
<!-- Title: G Pages: 1 -->
<svg width="1092pt" height="582pt"
 viewBox="0.00 0.00 1091.94 582.00" xmlns="http://www.w3.org/2000/svg" xmlns:xlink="http://www.w3.org/1999/xlink">
<g id="graph0" class="graph" transform="scale(1 1) rotate(0) translate(4 578)">
<title>G</title>
<polygon fill="#ffffff" stroke="transparent" points="-4,4 -4,-578 1087.9441,-578 1087.9441,4 -4,4"/>
<!-- A0 -->
<g id="node1" class="node">
<title>A0</title>
<polygon fill="#f5f5dc" stroke="#000000" points="90.5181,-180 -.1731,-180 -.1731,-144 96.5181,-144 96.5181,-174 90.5181,-180"/>
<polyline fill="none" stroke="#000000" points="90.5181,-180 90.5181,-174 "/>
<polyline fill="none" stroke="#000000" points="96.5181,-174 90.5181,-174 "/>
<text text-anchor="middle" x="48.1725" y="-165" font-family="Helvetica,sans-Serif" font-size="10.00" fill="#000000">figure 1.1: User</text>
<text text-anchor="middle" x="48.1725" y="-153" font-family="Helvetica,sans-Serif" font-size="10.00" fill="#000000">Case</text>
</g>
<!-- A1 -->
<g id="node2" class="node">
<title>A1</title>
<g transform="translate(48.1725,-231)" style="fill:none;stroke:black;stroke-width:1px"><circle cx="0" cy="-20" r="7.5" />
                <line x1="0" y1="-12.5" x2="0" y2="5" />
                <line x1="-15" y1="-5" x2="15" y2="-5" />
                <line x1="0" y1="5" x2="-15" y2="17" />
                <line x1="0" y1="5" x2="15" y2="17" /></g>
<text text-anchor="middle" x="48.1725" y="-206" font-family="Helvetica,sans-Serif" font-size="10.00" fill="#000000">User</text>
</g>
<!-- A2 -->
<g id="node3" class="node">
<title>A2</title>
<ellipse fill="none" stroke="#000000" cx="230.1372" cy="-396" rx="32.7567" ry="18"/>
<text text-anchor="middle" x="230.1372" y="-393" font-family="Helvetica,sans-Serif" font-size="10.00" fill="#000000">登录</text>
</g>
<!-- A1&#45;&gt;A2 -->
<g id="edge1" class="edge">
<title>A1&#45;&gt;A2</title>
<path fill="none" stroke="#000000" d="M66.4113,-270.2115C83.4679,-300.638 111.6464,-343.1772 147.345,-369 162.4123,-379.899 182.1134,-386.5577 198.5173,-390.5347"/>
</g>
<!-- A3 -->
<g id="node4" class="node">
<title>A3</title>
<ellipse fill="none" stroke="#000000" cx="230.1372" cy="-342" rx="68.7151" ry="18"/>
<text text-anchor="middle" x="230.1372" y="-339" font-family="Helvetica,sans-Serif" font-size="10.00" fill="#000000">管理文件系统来源</text>
</g>
<!-- A1&#45;&gt;A3 -->
<g id="edge2" class="edge">
<title>A1&#45;&gt;A3</title>
<path fill="none" stroke="#000000" d="M85.7997,-270.3117C103.3944,-285.7618 125.3005,-302.9553 147.345,-315 157.8263,-320.7268 169.723,-325.4903 181.1633,-329.3396"/>
</g>
<!-- A11 -->
<g id="node12" class="node">
<title>A11</title>
<ellipse fill="none" stroke="#000000" cx="230.1372" cy="-288" rx="55.6899" ry="18"/>
<text text-anchor="middle" x="230.1372" y="-285" font-family="Helvetica,sans-Serif" font-size="10.00" fill="#000000">刷新文件系统</text>
</g>
<!-- A1&#45;&gt;A11 -->
<g id="edge13" class="edge">
<title>A1&#45;&gt;A11</title>
<path fill="none" stroke="#000000" d="M88.1054,-245.8505C118.0261,-254.7298 158.8375,-266.841 189.0366,-275.803"/>
</g>
<!-- A12 -->
<g id="node13" class="node">
<title>A12</title>
<ellipse fill="none" stroke="#000000" cx="230.1372" cy="-234" rx="40.6302" ry="18"/>
<text text-anchor="middle" x="230.1372" y="-231" font-family="Helvetica,sans-Serif" font-size="10.00" fill="#000000">增删查改</text>
</g>
<!-- A1&#45;&gt;A12 -->
<g id="edge14" class="edge">
<title>A1&#45;&gt;A12</title>
<path fill="none" stroke="#000000" d="M88.1054,-234C118.1307,-234 159.123,-234 189.353,-234"/>
</g>
<!-- A17 -->
<g id="node18" class="node">
<title>A17</title>
<ellipse fill="none" stroke="#000000" cx="230.1372" cy="-180" rx="39.1569" ry="18"/>
<text text-anchor="middle" x="230.1372" y="-177" font-family="Helvetica,sans-Serif" font-size="10.00" fill="#000000">添加Tag</text>
</g>
<!-- A1&#45;&gt;A17 -->
<g id="edge19" class="edge">
<title>A1&#45;&gt;A17</title>
<path fill="none" stroke="#000000" d="M88.1054,-222.1495C120.7462,-212.463 166.3478,-198.9302 196.9935,-189.8358"/>
</g>
<!-- A18 -->
<g id="node19" class="node">
<title>A18</title>
<ellipse fill="none" stroke="#000000" cx="230.1372" cy="-126" rx="49.8438" ry="18"/>
<text text-anchor="middle" x="230.1372" y="-123" font-family="Helvetica,sans-Serif" font-size="10.00" fill="#000000">备份&amp;共享</text>
</g>
<!-- A1&#45;&gt;A18 -->
<g id="edge20" class="edge">
<title>A1&#45;&gt;A18</title>
<path fill="none" stroke="#000000" d="M87.8873,-199.0506C109.6783,-180.389 134.762,-159.8751 147.345,-153 160.2144,-145.9684 175.2177,-140.3891 188.8901,-136.1709"/>
</g>
<!-- A19 -->
<g id="node20" class="node">
<title>A19</title>
<ellipse fill="none" stroke="#000000" cx="230.1372" cy="-72" rx="82.5849" ry="18"/>
<text text-anchor="middle" x="230.1372" y="-69" font-family="Helvetica,sans-Serif" font-size="10.00" fill="#000000">浏览多种文件系统文件</text>
</g>
<!-- A1&#45;&gt;A19 -->
<g id="edge21" class="edge">
<title>A1&#45;&gt;A19</title>
<path fill="none" stroke="#000000" d="M87.8621,-198.8498C90.8539,-195.6301 93.7238,-192.3257 96.345,-189 124.8049,-152.8916 111.7476,-128.0964 147.345,-99 154.4856,-93.1635 162.924,-88.5754 171.6363,-84.9723"/>
</g>
<!-- A4 -->
<g id="node5" class="node">
<title>A4</title>
<ellipse fill="none" stroke="#000000" cx="485.145" cy="-430" rx="67.3719" ry="18"/>
<text text-anchor="middle" x="485.145" y="-427" font-family="Helvetica,sans-Serif" font-size="10.00" fill="#000000">本地文件系统管理</text>
</g>
<!-- A3&#45;&gt;A4 -->
<g id="edge3" class="edge">
<title>A3&#45;&gt;A4</title>
<path fill="none" stroke="#000000" stroke-dasharray="5,2" d="M274.0323,-356.0874C286.6142,-360.187 300.3335,-364.7161 312.9294,-369 354.2,-383.0362 400.7923,-399.5824 435.0978,-411.8983"/>
<polygon fill="#000000" stroke="#000000" points="444.8809,-415.4154 433.9481,-416.2669 440.1757,-413.7238 435.4705,-412.0322 435.4705,-412.0322 435.4705,-412.0322 440.1757,-413.7238 436.9929,-407.7976 444.8809,-415.4154 444.8809,-415.4154"/>
<text text-anchor="middle" x="365.4444" y="-398" font-family="Helvetica,sans-Serif" font-size="10.00" fill="#000000">&lt;&lt;include&gt;&gt;</text>
</g>
<!-- A5 -->
<g id="node6" class="node">
<title>A5</title>
<ellipse fill="none" stroke="#000000" cx="742.2588" cy="-556" rx="84.7963" ry="18"/>
<text text-anchor="middle" x="742.2588" y="-553" font-family="Helvetica,sans-Serif" font-size="10.00" fill="#000000">网络学堂文件系统管理</text>
</g>
<!-- A3&#45;&gt;A5 -->
<g id="edge4" class="edge">
<title>A3&#45;&gt;A5</title>
<path fill="none" stroke="#000000" stroke-dasharray="5,2" d="M284.2228,-353.4181C294.4446,-357.2336 304.5461,-362.2958 312.9294,-369 329.8948,-382.5674 322.4521,-395.7568 337.9294,-411 376.4248,-448.9133 568.3082,-528.2823 577.3307,-531 601.7026,-538.3411 628.7798,-543.5883 653.832,-547.3139"/>
<polygon fill="#000000" stroke="#000000" points="664.0592,-548.7687 653.5251,-551.8155 659.109,-548.0645 654.1589,-547.3603 654.1589,-547.3603 654.1589,-547.3603 659.109,-548.0645 654.7926,-542.9052 664.0592,-548.7687 664.0592,-548.7687"/>
<text text-anchor="middle" x="485.145" y="-523" font-family="Helvetica,sans-Serif" font-size="10.00" fill="#000000">&lt;&lt;include&gt;&gt;</text>
</g>
<!-- A6 -->
<g id="node7" class="node">
<title>A6</title>
<ellipse fill="none" stroke="#000000" cx="742.2588" cy="-340" rx="70.1683" ry="18"/>
<text text-anchor="middle" x="742.2588" y="-337" font-family="Helvetica,sans-Serif" font-size="10.00" fill="#000000">其他文件系统管理</text>
</g>
<!-- A3&#45;&gt;A6 -->
<g id="edge5" class="edge">
<title>A3&#45;&gt;A6</title>
<path fill="none" stroke="#000000" stroke-dasharray="5,2" d="M299.2042,-341.7303C393.4368,-341.3623 561.9596,-340.7041 661.7903,-340.3143"/>
<polygon fill="#000000" stroke="#000000" points="671.8271,-340.2751 661.8448,-344.8142 666.8271,-340.2946 661.8272,-340.3142 661.8272,-340.3142 661.8272,-340.3142 666.8271,-340.2946 661.8095,-335.8142 671.8271,-340.2751 671.8271,-340.2751"/>
<text text-anchor="middle" x="485.145" y="-344" font-family="Helvetica,sans-Serif" font-size="10.00" fill="#000000">&lt;&lt;include&gt;&gt;</text>
</g>
<!-- A4&#45;&gt;A5 -->
<g id="edge11" class="edge">
<title>A4&#45;&gt;A5</title>
<path fill="none" stroke="#000000" stroke-dasharray="5,2" d="M518.3278,-452.4665C552.0876,-474.4941 606.5307,-507.7724 657.3607,-529 668.2075,-533.5298 680.0965,-537.7497 691.4529,-541.4445"/>
<polygon fill="#000000" stroke="#000000" points="509.7901,-446.8474 520.6172,-448.5862 513.9667,-449.5963 518.1433,-452.3451 518.1433,-452.3451 518.1433,-452.3451 513.9667,-449.5963 515.6693,-456.1041 509.7901,-446.8474 509.7901,-446.8474"/>
<text text-anchor="middle" x="604.8457" y="-518" font-family="Helvetica,sans-Serif" font-size="10.00" fill="#000000">&lt;&lt;extend&gt;&gt;</text>
</g>
<!-- A4&#45;&gt;A6 -->
<g id="edge12" class="edge">
<title>A4&#45;&gt;A6</title>
<path fill="none" stroke="#000000" stroke-dasharray="5,2" d="M531.0911,-410.8496C545.7839,-404.9167 562.1697,-398.4982 577.3307,-393 612.489,-380.2497 621.7561,-378.4451 657.3607,-367 670.4656,-362.7874 684.7197,-358.2406 697.74,-354.101"/>
<polygon fill="#000000" stroke="#000000" points="521.7103,-414.6636 529.279,-406.7286 526.3421,-412.7804 530.9739,-410.8972 530.9739,-410.8972 530.9739,-410.8972 526.3421,-412.7804 532.6688,-415.0658 521.7103,-414.6636 521.7103,-414.6636"/>
<text text-anchor="middle" x="604.8457" y="-396" font-family="Helvetica,sans-Serif" font-size="10.00" fill="#000000">&lt;&lt;extend&gt;&gt;</text>
</g>
<!-- A7 -->
<g id="node8" class="node">
<title>A7</title>
<ellipse fill="none" stroke="#000000" cx="742.2588" cy="-394" rx="57.5022" ry="18"/>
<text text-anchor="middle" x="742.2588" y="-391" font-family="Helvetica,sans-Serif" font-size="10.00" fill="#000000">删除文件系统</text>
</g>
<!-- A4&#45;&gt;A7 -->
<g id="edge6" class="edge">
<title>A4&#45;&gt;A7</title>
<path fill="none" stroke="#000000" stroke-dasharray="5,2" d="M544.7784,-421.6504C585.122,-416.0016 638.3229,-408.5527 679.3405,-402.8096"/>
<polygon fill="#000000" stroke="#000000" points="689.4909,-401.3883 680.2116,-407.2316 684.5392,-402.0817 679.5875,-402.7751 679.5875,-402.7751 679.5875,-402.7751 684.5392,-402.0817 678.9635,-398.3185 689.4909,-401.3883 689.4909,-401.3883"/>
<text text-anchor="middle" x="604.8457" y="-419" font-family="Helvetica,sans-Serif" font-size="10.00" fill="#000000">&lt;&lt;include&gt;&gt;</text>
</g>
<!-- A8 -->
<g id="node9" class="node">
<title>A8</title>
<ellipse fill="none" stroke="#000000" cx="742.2588" cy="-502" rx="67.5485" ry="18"/>
<text text-anchor="middle" x="742.2588" y="-499" font-family="Helvetica,sans-Serif" font-size="10.00" fill="#000000">重命名文件系统</text>
</g>
<!-- A4&#45;&gt;A8 -->
<g id="edge7" class="edge">
<title>A4&#45;&gt;A8</title>
<path fill="none" stroke="#000000" stroke-dasharray="5,2" d="M531.562,-443.1198C546.2029,-447.2504 562.4405,-451.8237 577.3307,-456 613.2297,-466.0687 653.542,-477.3133 685.3255,-486.1646"/>
<polygon fill="#000000" stroke="#000000" points="695.3288,-488.9498 684.4882,-490.6026 690.512,-487.6086 685.6952,-486.2675 685.6952,-486.2675 685.6952,-486.2675 690.512,-487.6086 686.9023,-481.9324 695.3288,-488.9498 695.3288,-488.9498"/>
<text text-anchor="middle" x="604.8457" y="-474" font-family="Helvetica,sans-Serif" font-size="10.00" fill="#000000">&lt;&lt;include&gt;&gt;</text>
</g>
<!-- A9 -->
<g id="node10" class="node">
<title>A9</title>
<ellipse fill="none" stroke="#000000" cx="742.2588" cy="-448" rx="72.4022" ry="18"/>
<text text-anchor="middle" x="742.2588" y="-445" font-family="Helvetica,sans-Serif" font-size="10.00" fill="#000000">文件系统属性修改</text>
</g>
<!-- A4&#45;&gt;A9 -->
<g id="edge8" class="edge">
<title>A4&#45;&gt;A9</title>
<path fill="none" stroke="#000000" stroke-dasharray="5,2" d="M550.3581,-434.5654C584.4914,-436.955 626.5674,-439.9007 662.6138,-442.4242"/>
<polygon fill="#000000" stroke="#000000" points="672.6093,-443.124 662.3194,-446.9145 667.6215,-442.7748 662.6337,-442.4255 662.6337,-442.4255 662.6337,-442.4255 667.6215,-442.7748 662.948,-437.9365 672.6093,-443.124 672.6093,-443.124"/>
<text text-anchor="middle" x="604.8457" y="-443" font-family="Helvetica,sans-Serif" font-size="10.00" fill="#000000">&lt;&lt;include&gt;&gt;</text>
</g>
<!-- A10 -->
<g id="node11" class="node">
<title>A10</title>
<ellipse fill="none" stroke="#000000" cx="1008.0655" cy="-447" rx="75.7574" ry="18"/>
<text text-anchor="middle" x="1008.0655" y="-444" font-family="Helvetica,sans-Serif" font-size="10.00" fill="#000000">同步至本地文件系统</text>
</g>
<!-- A5&#45;&gt;A10 -->
<g id="edge9" class="edge">
<title>A5&#45;&gt;A10</title>
<path fill="none" stroke="#000000" stroke-dasharray="5,2" d="M791.9814,-541.2663C803.6145,-537.5222 815.8951,-533.3258 827.1569,-529 875.6185,-510.385 929.6459,-485.3059 965.9333,-467.803"/>
<polygon fill="#000000" stroke="#000000" points="975.2198,-463.3023 968.1836,-471.7131 970.7204,-465.483 966.221,-467.6636 966.221,-467.6636 966.221,-467.6636 970.7204,-465.483 964.2584,-463.6142 975.2198,-463.3023 975.2198,-463.3023"/>
<text text-anchor="middle" x="879.6719" y="-522" font-family="Helvetica,sans-Serif" font-size="10.00" fill="#000000">&lt;&lt;include&gt;&gt;</text>
</g>
<!-- A6&#45;&gt;A10 -->
<g id="edge10" class="edge">
<title>A6&#45;&gt;A10</title>
<path fill="none" stroke="#000000" stroke-dasharray="5,2" d="M788.3953,-353.672C801.0557,-357.6944 814.7182,-362.2877 827.1569,-367 875.2091,-385.2043 928.8926,-409.4583 965.2086,-426.471"/>
<polygon fill="#000000" stroke="#000000" points="974.5119,-430.8489 963.5476,-430.6627 969.9877,-428.7199 965.4636,-426.591 965.4636,-426.591 965.4636,-426.591 969.9877,-428.7199 967.3797,-422.5192 974.5119,-430.8489 974.5119,-430.8489"/>
<text text-anchor="middle" x="879.6719" y="-401" font-family="Helvetica,sans-Serif" font-size="10.00" fill="#000000">&lt;&lt;include&gt;&gt;</text>
</g>
<!-- A13 -->
<g id="node14" class="node">
<title>A13</title>
<ellipse fill="none" stroke="#000000" cx="485.145" cy="-234" rx="58.669" ry="18"/>
<text text-anchor="middle" x="485.145" y="-231" font-family="Helvetica,sans-Serif" font-size="10.00" fill="#000000">增加文件树节点</text>
</g>
<!-- A12&#45;&gt;A13 -->
<g id="edge15" class="edge">
<title>A12&#45;&gt;A13</title>
<path fill="none" stroke="#000000" stroke-dasharray="5,2" d="M270.8259,-234C309.8651,-234 369.5827,-234 416.0746,-234"/>
<polygon fill="#000000" stroke="#000000" points="426.0816,-234 416.0817,-238.5001 421.0816,-234 416.0816,-234.0001 416.0816,-234.0001 416.0816,-234.0001 421.0816,-234 416.0816,-229.5001 426.0816,-234 426.0816,-234"/>
<text text-anchor="middle" x="365.4444" y="-237" font-family="Helvetica,sans-Serif" font-size="10.00" fill="#000000">&lt;&lt;include&gt;&gt;</text>
</g>
<!-- A14 -->
<g id="node15" class="node">
<title>A14</title>
<ellipse fill="none" stroke="#000000" cx="485.145" cy="-180" rx="59.5035" ry="18"/>
<text text-anchor="middle" x="485.145" y="-177" font-family="Helvetica,sans-Serif" font-size="10.00" fill="#000000">删除文件树节点</text>
</g>
<!-- A12&#45;&gt;A14 -->
<g id="edge16" class="edge">
<title>A12&#45;&gt;A14</title>
<path fill="none" stroke="#000000" stroke-dasharray="5,2" d="M266.9452,-226.2056C308.6247,-217.3796 377.1123,-202.8768 426.2455,-192.4725"/>
<polygon fill="#000000" stroke="#000000" points="436.1096,-190.3836 427.2588,-196.8577 431.2181,-191.4195 426.3266,-192.4554 426.3266,-192.4554 426.3266,-192.4554 431.2181,-191.4195 425.3943,-188.053 436.1096,-190.3836 436.1096,-190.3836"/>
<text text-anchor="middle" x="365.4444" y="-214" font-family="Helvetica,sans-Serif" font-size="10.00" fill="#000000">&lt;&lt;include&gt;&gt;</text>
</g>
<!-- A15 -->
<g id="node16" class="node">
<title>A15</title>
<ellipse fill="none" stroke="#000000" cx="485.145" cy="-126" rx="58.669" ry="18"/>
<text text-anchor="middle" x="485.145" y="-123" font-family="Helvetica,sans-Serif" font-size="10.00" fill="#000000">搜索文件树节点</text>
</g>
<!-- A12&#45;&gt;A15 -->
<g id="edge17" class="edge">
<title>A12&#45;&gt;A15</title>
<path fill="none" stroke="#000000" stroke-dasharray="5,2" d="M266.5238,-225.5939C281.4815,-221.273 298.6156,-215.1661 312.9294,-207 325.7851,-199.6657 325.3223,-192.754 337.9294,-185 367.7455,-166.6616 404.2531,-151.9868 433.4533,-141.8595"/>
<polygon fill="#000000" stroke="#000000" points="443.0556,-138.6006 435.0324,-146.0757 438.3209,-140.2075 433.5861,-141.8145 433.5861,-141.8145 433.5861,-141.8145 438.3209,-140.2075 432.1399,-137.5532 443.0556,-138.6006 443.0556,-138.6006"/>
<text text-anchor="middle" x="365.4444" y="-188" font-family="Helvetica,sans-Serif" font-size="10.00" fill="#000000">&lt;&lt;include&gt;&gt;</text>
</g>
<!-- A16 -->
<g id="node17" class="node">
<title>A16</title>
<ellipse fill="none" stroke="#000000" cx="485.145" cy="-288" rx="60.6631" ry="18"/>
<text text-anchor="middle" x="485.145" y="-285" font-family="Helvetica,sans-Serif" font-size="10.00" fill="#000000">修改文件树节点</text>
</g>
<!-- A12&#45;&gt;A16 -->
<g id="edge18" class="edge">
<title>A12&#45;&gt;A16</title>
<path fill="none" stroke="#000000" stroke-dasharray="5,2" d="M266.9452,-241.7944C308.4957,-250.593 376.6885,-265.0334 425.7886,-275.4308"/>
<polygon fill="#000000" stroke="#000000" points="435.6498,-277.519 424.9344,-279.8496 430.7582,-276.4831 425.8667,-275.4472 425.8667,-275.4472 425.8667,-275.4472 430.7582,-276.4831 426.799,-271.0449 435.6498,-277.519 435.6498,-277.519"/>
<text text-anchor="middle" x="365.4444" y="-270" font-family="Helvetica,sans-Serif" font-size="10.00" fill="#000000">&lt;&lt;include&gt;&gt;</text>
</g>
<!-- A20 -->
<g id="node21" class="node">
<title>A20</title>
<ellipse fill="none" stroke="#000000" cx="485.145" cy="-18" rx="46.4368" ry="18"/>
<text text-anchor="middle" x="485.145" y="-15" font-family="Helvetica,sans-Serif" font-size="10.00" fill="#000000">文件树展示</text>
</g>
<!-- A19&#45;&gt;A20 -->
<g id="edge22" class="edge">
<title>A19&#45;&gt;A20</title>
<path fill="none" stroke="#000000" stroke-dasharray="5,2" d="M289.6034,-59.4076C333.5194,-50.108 392.6646,-37.5835 434.371,-28.7518"/>
<polygon fill="#000000" stroke="#000000" points="444.3134,-26.6464 435.4626,-33.1205 439.4219,-27.6823 434.5303,-28.7182 434.5303,-28.7182 434.5303,-28.7182 439.4219,-27.6823 433.5981,-24.3158 444.3134,-26.6464 444.3134,-26.6464"/>
<text text-anchor="middle" x="365.4444" y="-52" font-family="Helvetica,sans-Serif" font-size="10.00" fill="#000000">&lt;&lt;include&gt;&gt;</text>
</g>
<!-- A21 -->
<g id="node22" class="node">
<title>A21</title>
<ellipse fill="none" stroke="#000000" cx="485.145" cy="-72" rx="55.3123" ry="18"/>
<text text-anchor="middle" x="485.145" y="-69" font-family="Helvetica,sans-Serif" font-size="10.00" fill="#000000">文件列表展示</text>
</g>
<!-- A19&#45;&gt;A21 -->
<g id="edge23" class="edge">
<title>A19&#45;&gt;A21</title>
<path fill="none" stroke="#000000" stroke-dasharray="5,2" d="M312.9309,-72C347.4441,-72 386.9615,-72 419.4293,-72"/>
<polygon fill="#000000" stroke="#000000" points="429.7078,-72 419.7078,-76.5001 424.7078,-72 419.7078,-72.0001 419.7078,-72.0001 419.7078,-72.0001 424.7078,-72 419.7077,-67.5001 429.7078,-72 429.7078,-72"/>
<text text-anchor="middle" x="365.4444" y="-75" font-family="Helvetica,sans-Serif" font-size="10.00" fill="#000000">&lt;&lt;include&gt;&gt;</text>
</g>
</g>
</svg>
